<?xml version="1.0" encoding="UTF-8"?>
<!DOCTYPE svg PUBLIC "-//W3C//DTD SVG 1.1//EN" "http://www.w3.org/Graphics/SVG/1.1/DTD/svg11.dtd">
<svg xmlns="http://www.w3.org/2000/svg" version="1.1" width="259px" height="118px" style="shape-rendering:geometricPrecision; text-rendering:geometricPrecision; image-rendering:optimizeQuality; fill-rule:evenodd; clip-rule:evenodd" xmlns:xlink="http://www.w3.org/1999/xlink">
<g><path style="opacity:1" fill="#8f919b" d="M 187.5,36.5 C 185.393,37.4682 183.059,37.8016 180.5,37.5C 172.994,31.499 165.327,25.6657 157.5,20C 119.5,19.3333 81.5,19.3333 43.5,20C 39.4357,24.0466 38.4357,28.88 40.5,34.5C 43.3174,36.8167 45.9841,39.3167 48.5,42C 51.4816,42.498 54.4816,42.6646 57.5,42.5C 58.4896,36.69 58.8229,30.69 58.5,24.5C 59.8333,24.5 61.1667,24.5 62.5,24.5C 62.5,30.5 62.5,36.5 62.5,42.5C 76.6569,43.4959 90.9903,43.8293 105.5,43.5C 105.5,37.1667 105.5,30.8333 105.5,24.5C 109.833,24.5 114.167,24.5 118.5,24.5C 118.5,30.8333 118.5,37.1667 118.5,43.5C 131.344,43.8287 144.011,43.4954 156.5,42.5C 156.334,36.4908 156.501,30.4908 157,24.5C 161.867,30.4007 166.367,36.5673 170.5,43C 180.833,43.3333 191.167,43.6667 201.5,44C 210.092,47.1973 218.758,50.1973 227.5,53C 228.833,54.3333 230.167,55.6667 231.5,57C 230.207,57.49 228.873,57.6567 227.5,57.5C 226.549,58.9187 226.216,60.5853 226.5,62.5C 229.833,62.5 233.167,62.5 236.5,62.5C 237.178,66.2727 235.844,69.106 232.5,71C 233.793,71.49 235.127,71.6567 236.5,71.5C 236.66,73.1992 236.494,74.8659 236,76.5C 233.167,79.3333 230.333,82.1667 227.5,85C 221.804,85.8299 216.137,85.6632 210.5,84.5C 212.594,74.4077 209.261,66.5744 200.5,61C 185.474,55.1866 175.141,59.6866 169.5,74.5C 168.521,77.6248 168.187,80.9581 168.5,84.5C 135.833,84.5 103.167,84.5 70.5,84.5C 71.4136,65.5815 62.4136,57.0815 43.5,59C 32.046,63.9161 27.3794,72.4161 29.5,84.5C 26.0613,84.7471 22.728,84.4137 19.5,83.5C 16.5211,81.1877 13.8544,78.5211 11.5,75.5C 12.7467,72.6714 14.2467,70.0048 16,67.5C 16.3333,60.5 16.6667,53.5 17,46.5C 18.1667,45.3333 19.3333,44.1667 20.5,43C 19.062,42.7811 17.7287,42.2811 16.5,41.5C 18.1667,35.4997 19.8334,29.4997 21.5,23.5C 25.8333,20.6667 30.1667,17.8333 34.5,15C 75.5,14.3333 116.5,14.3333 157.5,15C 167.379,22.3855 177.379,29.5522 187.5,36.5 Z"/></g>
<g><path style="opacity:1" fill="#fdfdfd" d="M 109.5,47.5 C 110.49,41.69 110.823,35.69 110.5,29.5C 111.5,29.5 112.5,29.5 113.5,29.5C 113.5,35.8333 113.5,42.1667 113.5,48.5C 129.342,48.8296 145.009,48.4963 160.5,47.5C 161.317,45.0314 161.817,42.3647 162,39.5C 163.833,41.8333 165.667,44.1667 167.5,46.5C 178.151,47.3324 188.818,47.8324 199.5,48C 207.043,50.9671 214.71,53.4671 222.5,55.5C 222.5,59.1667 222.5,62.8333 222.5,66.5C 224.857,66.3367 227.19,66.5034 229.5,67C 226.65,69.6824 223.984,72.5157 221.5,75.5C 224.107,76.3184 226.774,76.8184 229.5,77C 225.826,80.5775 221.493,81.4109 216.5,79.5C 214.84,67.0136 208.174,58.5136 196.5,54C 181.587,52.5431 171.087,58.7097 165,72.5C 164.503,75.146 164.336,77.8127 164.5,80.5C 134.833,80.5 105.167,80.5 75.5,80.5C 74.8301,64.4941 66.4968,55.4941 50.5,53.5C 34.31,55.3552 25.6433,64.3552 24.5,80.5C 17.5264,79.0353 16.0264,75.3687 20,69.5C 20.3333,62.8333 20.6667,56.1667 21,49.5C 24.8333,45.6667 28.6667,41.8333 32.5,38C 29.1832,37.5017 25.8499,37.335 22.5,37.5C 23.0874,27.754 28.0874,21.9207 37.5,20C 36.9747,20.6924 36.3081,21.1924 35.5,21.5C 34.1667,26.5 34.1667,31.5 35.5,36.5C 39.3181,39.8176 42.9848,43.3176 46.5,47C 67.4974,47.5 88.4974,47.6666 109.5,47.5 Z"/></g>
<g><path style="opacity:1" fill="#c6c7cc" d="M 62.5,24.5 C 61.1667,24.5 59.8333,24.5 58.5,24.5C 58.8229,30.69 58.4896,36.69 57.5,42.5C 57.5,36.1667 57.5,29.8333 57.5,23.5C 59.4147,23.2155 61.0813,23.5489 62.5,24.5 Z"/></g>
<g><path style="opacity:1" fill="#c3c4c9" d="M 187.5,36.5 C 188.289,36.7828 188.956,37.2828 189.5,38C 186.304,38.8045 183.304,38.6378 180.5,37.5C 183.059,37.8016 185.393,37.4682 187.5,36.5 Z"/></g>
<g><path style="opacity:1" fill="#c3c4c9" d="M 156.5,42.5 C 144.011,43.4954 131.344,43.8287 118.5,43.5C 118.5,37.1667 118.5,30.8333 118.5,24.5C 114.167,24.5 109.833,24.5 105.5,24.5C 105.5,30.8333 105.5,37.1667 105.5,43.5C 90.9903,43.8293 76.6569,43.4959 62.5,42.5C 76.5,42.5 90.5,42.5 104.5,42.5C 104.5,36.1667 104.5,29.8333 104.5,23.5C 109.5,23.5 114.5,23.5 119.5,23.5C 119.5,29.8333 119.5,36.1667 119.5,42.5C 131.833,42.5 144.167,42.5 156.5,42.5 Z"/></g>
<g><path style="opacity:1" fill="#e5e6e8" d="M 160.5,47.5 C 145.009,48.4963 129.342,48.8296 113.5,48.5C 113.5,42.1667 113.5,35.8333 113.5,29.5C 112.5,29.5 111.5,29.5 110.5,29.5C 110.823,35.69 110.49,41.69 109.5,47.5C 109.5,41.1667 109.5,34.8333 109.5,28.5C 111.167,28.5 112.833,28.5 114.5,28.5C 114.5,34.8333 114.5,41.1667 114.5,47.5C 129.833,47.5 145.167,47.5 160.5,47.5 Z"/></g>
<g><path style="opacity:1" fill="#c3c4c9" d="M 227.5,57.5 C 227.5,58.8333 227.5,60.1667 227.5,61.5C 230.713,61.19 233.713,61.5233 236.5,62.5C 233.167,62.5 229.833,62.5 226.5,62.5C 226.216,60.5853 226.549,58.9187 227.5,57.5 Z"/></g>
<g><path style="opacity:1" fill="#8e9099" d="M 45.5,63.5 C 61.3936,63.3127 67.8936,70.9794 65,86.5C 64.2078,88.5873 63.0412,90.4207 61.5,92C 100.5,92.6667 139.5,92.6667 178.5,92C 171.685,83.397 172.019,75.0636 179.5,67C 189.614,61.1636 198.114,62.997 205,72.5C 207.858,79.8099 206.691,86.3099 201.5,92C 210.16,92.4998 218.827,92.6664 227.5,92.5C 227.5,93.8333 227.5,95.1667 227.5,96.5C 158.5,96.5 89.5,96.5 20.5,96.5C 20.5,95.1667 20.5,93.8333 20.5,92.5C 26.5092,92.6662 32.5092,92.4995 38.5,92C 29.9637,79.7409 32.297,70.2409 45.5,63.5 Z"/></g>
<g><path style="opacity:1" fill="#f9fafa" d="M 44.5,68.5 C 58.2972,67.1011 63.4639,73.1011 60,86.5C 59.0701,88.5524 57.5701,90.0524 55.5,91C 42.3876,93.221 36.8876,87.721 39,74.5C 41.0396,72.6298 42.8729,70.6298 44.5,68.5 Z"/></g>
<g><path style="opacity:1" fill="#f9f9fa" d="M 184.5,68.5 C 199.81,67.435 204.643,74.1016 199,88.5C 194.632,91.4201 189.799,92.2534 184.5,91C 178.885,86.869 177.052,81.369 179,74.5C 181.04,72.6298 182.873,70.6298 184.5,68.5 Z"/></g>
<g><path style="opacity:1" fill="#90929b" d="M 43.5,80.5 C 46.0444,80.1043 48.2111,80.771 50,82.5C 51.897,80.9837 54.0637,80.317 56.5,80.5C 55.6076,87.4556 51.9409,89.2889 45.5,86C 43.8446,84.5557 43.178,82.7224 43.5,80.5 Z"/></g>
<g><path style="opacity:1" fill="#90929b" d="M 183.5,80.5 C 186.044,80.1043 188.211,80.771 190,82.5C 191.897,80.9837 194.064,80.317 196.5,80.5C 195.608,87.4556 191.941,89.2889 185.5,86C 184.139,84.4157 183.472,82.5824 183.5,80.5 Z"/></g>
<g><path style="opacity:1" fill="#cbccd1" d="M 19.5,83.5 C 22.728,84.4137 26.0613,84.7471 29.5,84.5C 28.036,85.1599 26.3693,85.4932 24.5,85.5C 22.3603,85.4439 20.6936,84.7773 19.5,83.5 Z"/></g>
<g><path style="opacity:1" fill="#b8b9bf" d="M 169.5,74.5 C 169.5,78.1667 169.5,81.8333 169.5,85.5C 136.329,85.8316 103.329,85.4983 70.5,84.5C 103.167,84.5 135.833,84.5 168.5,84.5C 168.187,80.9581 168.521,77.6248 169.5,74.5 Z"/></g>
</svg>
