<?xml version="1.0" encoding="UTF-8"?>
<!DOCTYPE svg PUBLIC "-//W3C//DTD SVG 1.1//EN" "http://www.w3.org/Graphics/SVG/1.1/DTD/svg11.dtd">
<svg xmlns="http://www.w3.org/2000/svg" version="1.1" width="263px" height="100px" style="shape-rendering:geometricPrecision; text-rendering:geometricPrecision; image-rendering:optimizeQuality; fill-rule:evenodd; clip-rule:evenodd" xmlns:xlink="http://www.w3.org/1999/xlink">
<g><path style="opacity:0" fill="#fdfdfd" d="M -0.5,-0.5 C 87.1667,-0.5 174.833,-0.5 262.5,-0.5C 262.5,32.8333 262.5,66.1667 262.5,99.5C 174.833,99.5 87.1667,99.5 -0.5,99.5C -0.5,66.1667 -0.5,32.8333 -0.5,-0.5 Z"/></g>
<g><path style="opacity:1" fill="#8e909a" d="M 180.5,27.5 C 178.393,28.4682 176.059,28.8016 173.5,28.5C 169.049,25.8894 164.716,23.0561 160.5,20C 154.454,18.8811 148.454,17.5478 142.5,16C 123.5,15.3333 104.5,15.3333 85.5,16C 82.6503,18.6824 79.9836,21.5157 77.5,24.5C 78.6477,26.1487 79.981,27.6487 81.5,29C 93.7687,31.0753 106.102,32.5753 118.5,33.5C 118.5,29.1667 118.5,24.8333 118.5,20.5C 120.288,20.2148 121.955,20.5481 123.5,21.5C 124.833,25.1667 126.167,28.8333 127.5,32.5C 155.827,33.3332 184.161,33.8332 212.5,34C 220.838,35.5007 229.171,37.0007 237.5,38.5C 236.5,39.8333 235.5,41.1667 234.5,42.5C 236.67,44.0862 239.004,45.4196 241.5,46.5C 242.664,52.8072 242.831,59.1405 242,65.5C 240.833,66.6667 239.667,67.8333 238.5,69C 234.848,69.4986 231.182,69.6653 227.5,69.5C 227.5,68.5 227.5,67.5 227.5,66.5C 227.267,48.6955 218.267,41.1955 200.5,44C 189.715,49.0668 185.382,57.5668 187.5,69.5C 154.167,69.5 120.833,69.5 87.5,69.5C 90.1965,53.5382 83.5299,44.8716 67.5,43.5C 57.4144,43.7438 50.9144,48.7438 48,58.5C 47.4213,62.2027 47.588,65.8694 48.5,69.5C 42.4908,69.6662 36.4908,69.4995 30.5,69C 29.1667,67.6667 27.8333,66.3333 26.5,65C 27.8333,63.6667 29.1667,62.3333 30.5,61C 27.4465,60.8214 24.4465,60.3214 21.5,59.5C 18.0169,54.3581 16.6835,48.6914 17.5,42.5C 20.8499,42.665 24.1832,42.4983 27.5,42C 28.5,41 29.5,40 30.5,39C 27.854,38.5026 25.1873,38.3359 22.5,38.5C 21.4614,33.1508 22.7947,28.6508 26.5,25C 34.1667,24.6667 41.8333,24.3333 49.5,24C 48.1667,22.6667 46.8333,21.3333 45.5,20C 57.7664,17.0113 70.0997,14.3446 82.5,12C 103.167,11.3333 123.833,11.3333 144.5,12C 149.1,13.3167 153.766,14.3167 158.5,15C 165.979,18.9945 173.312,23.1611 180.5,27.5 Z"/></g>
<g><path style="opacity:1" fill="#fdfdfd" d="M 202.5,38.5 C 202.5,38.8333 202.5,39.1667 202.5,39.5C 189.459,43.2131 182.793,51.8797 182.5,65.5C 167.235,66.0845 152.068,65.4178 137,63.5C 135.289,63.4393 133.956,64.1059 133,65.5C 130.984,63.3918 128.817,63.0584 126.5,64.5C 115.5,64.5 104.5,64.5 93.5,64.5C 93.7947,62.2646 93.4614,60.2646 92.5,58.5C 87.4423,42.9889 76.7756,36.8222 60.5,40C 48.9918,44.664 43.3251,53.164 43.5,65.5C 40.1501,65.665 36.8168,65.4983 33.5,65C 36.1667,62.3333 38.8333,59.6667 41.5,57C 35.8042,56.8299 30.1376,56.3299 24.5,55.5C 22.9447,53.057 22.278,50.3903 22.5,47.5C 24.5273,47.6621 26.5273,47.4955 28.5,47C 32.369,42.963 36.369,39.1296 40.5,35.5C 41.0431,35.44 41.3764,35.1067 41.5,34.5C 36.544,33.5059 31.544,33.1725 26.5,33.5C 26.33,32.1779 26.6634,31.0113 27.5,30C 38.5,29.6667 49.5,29.3333 60.5,29C 58.5,27 56.5,25 54.5,23C 61.7266,20.8061 69.0599,19.4728 76.5,19C 74.0465,20.7401 72.5465,22.9067 72,25.5C 75.1541,30.0142 79.3207,32.8475 84.5,34C 95.8352,35.5002 107.168,37.0002 118.5,38.5C 120.641,38.3868 122.475,37.7201 124,36.5C 149.94,38.4856 176.106,39.1523 202.5,38.5 Z"/></g>
<g><path style="opacity:1" fill="#c6c7cc" d="M 180.5,27.5 C 181.289,27.7828 181.956,28.2828 182.5,29C 179.304,29.8045 176.304,29.6378 173.5,28.5C 176.059,28.8016 178.393,28.4682 180.5,27.5 Z"/></g>
<g><path style="opacity:1" fill="#a8aab1" d="M 26.5,33.5 C 31.544,33.1725 36.544,33.5059 41.5,34.5C 41.3764,35.1067 41.0431,35.44 40.5,35.5C 35.8333,34.8333 31.1667,34.1667 26.5,33.5 Z"/></g>
<g><path style="opacity:1" fill="#bfc0c5" d="M 202.5,39.5 C 202.5,39.1667 202.5,38.8333 202.5,38.5C 207.032,38.1818 211.366,38.5151 215.5,39.5C 215.5,39.8333 215.5,40.1667 215.5,40.5C 211.265,39.564 206.931,39.2307 202.5,39.5 Z"/></g>
<g><path style="opacity:1" fill="#f7f8f8" d="M 215.5,40.5 C 215.5,40.1667 215.5,39.8333 215.5,39.5C 219.912,39.9022 224.246,40.7355 228.5,42C 226.875,42.8525 226.542,43.8525 227.5,45C 231.079,46.7059 234.579,48.5392 238,50.5C 238.667,54.8333 238.667,59.1667 238,63.5C 236.556,65.1554 234.722,65.822 232.5,65.5C 233.017,52.8454 227.351,44.5121 215.5,40.5 Z"/></g>
<g><path style="opacity:1" fill="#8c8e98" d="M 83.5,73.5 C 121.429,74.663 160.095,74.8297 199.5,74C 198.956,73.2828 198.289,72.7828 197.5,72.5C 191.638,59.187 195.805,50.8536 210,47.5C 215.099,47.8835 219.433,49.8835 223,53.5C 224.559,55.2166 225.392,57.2166 225.5,59.5C 225.5,62.1667 225.5,64.8333 225.5,67.5C 224.833,69.1667 224.167,70.8333 223.5,72.5C 222.711,72.7828 222.044,73.2828 221.5,74C 226.489,74.4993 231.489,74.6659 236.5,74.5C 236.5,75.8333 236.5,77.1667 236.5,78.5C 166.167,78.5 95.8333,78.5 25.5,78.5C 25.5,77.1667 25.5,75.8333 25.5,74.5C 36.8529,74.8322 48.1862,74.4988 59.5,73.5C 59.3764,72.8933 59.0431,72.56 58.5,72.5C 52.4231,58.9902 56.7565,50.6569 71.5,47.5C 86.0631,51.1664 90.0631,59.833 83.5,73.5 Z"/></g>
<g><path style="opacity:1" fill="#fafbfb" d="M 66.5,52.5 C 78.6828,51.506 83.5161,56.8394 81,68.5C 73.9199,76.654 67.2532,76.3207 61,67.5C 60.3333,64.5 60.3333,61.5 61,58.5C 62.3597,55.9774 64.193,53.9774 66.5,52.5 Z"/></g>
<g><path style="opacity:1" fill="#fbfbfb" d="M 206.5,52.5 C 217.318,51.8169 222.151,56.8169 221,67.5C 213.96,76.7123 206.96,76.7123 200,67.5C 198.366,60.7751 200.532,55.7751 206.5,52.5 Z"/></g>
<g><path style="opacity:1" fill="#dedee1" d="M 92.5,58.5 C 93.4614,60.2646 93.7947,62.2646 93.5,64.5C 104.5,64.5 115.5,64.5 126.5,64.5C 115.346,65.4948 104.012,65.8281 92.5,65.5C 92.5,63.1667 92.5,60.8333 92.5,58.5 Z"/></g>
<g><path style="opacity:1" fill="#c5c6cb" d="M 225.5,59.5 C 226.167,61.8333 226.833,64.1667 227.5,66.5C 227.5,67.5 227.5,68.5 227.5,69.5C 226.833,68.8333 226.167,68.1667 225.5,67.5C 225.5,64.8333 225.5,62.1667 225.5,59.5 Z"/></g>
<g><path style="opacity:1" fill="#e1e1e4" d="M 197.5,72.5 C 198.289,72.7828 198.956,73.2828 199.5,74C 160.095,74.8297 121.429,74.663 83.5,73.5C 121.67,73.8318 159.67,73.4985 197.5,72.5 Z"/></g>
<g><path style="opacity:1" fill="#e0e0e4" d="M 58.5,72.5 C 59.0431,72.56 59.3764,72.8933 59.5,73.5C 48.1862,74.4988 36.8529,74.8322 25.5,74.5C 36.5,73.8333 47.5,73.1667 58.5,72.5 Z"/></g>
<g><path style="opacity:1" fill="#d6d6da" d="M 223.5,72.5 C 227.833,73.1667 232.167,73.8333 236.5,74.5C 231.489,74.6659 226.489,74.4993 221.5,74C 222.044,73.2828 222.711,72.7828 223.5,72.5 Z"/></g>
</svg>
