<?xml version="1.0" encoding="UTF-8"?>
<!DOCTYPE svg PUBLIC "-//W3C//DTD SVG 1.1//EN" "http://www.w3.org/Graphics/SVG/1.1/DTD/svg11.dtd">
<svg xmlns="http://www.w3.org/2000/svg" version="1.1" width="278px" height="143px" style="shape-rendering:geometricPrecision; text-rendering:geometricPrecision; image-rendering:optimizeQuality; fill-rule:evenodd; clip-rule:evenodd" xmlns:xlink="http://www.w3.org/1999/xlink">
<g><path style="opacity:1" fill="#91939c" d="M 176.5,49.5 C 172.366,50.4849 168.032,50.8182 163.5,50.5C 158.714,47.5546 154.048,44.3879 149.5,41C 144.167,39.6667 138.833,38.3333 133.5,37C 120.5,36.3333 107.5,36.3333 94.5,37C 86.6667,41.4155 79.0001,46.0822 71.5,51C 75.2797,56.138 80.2797,57.638 86.5,55.5C 87.7878,53.2612 88.7878,50.9279 89.5,48.5C 90.4731,50.9479 90.8064,53.6146 90.5,56.5C 98.8333,56.5 107.167,56.5 115.5,56.5C 115.5,51.5 115.5,46.5 115.5,41.5C 117.167,41.5 118.833,41.5 120.5,41.5C 120.5,46.5 120.5,51.5 120.5,56.5C 143.169,56.3334 165.836,56.5 188.5,57C 203.082,60.3831 217.749,63.3831 232.5,66C 235.802,67.6511 239.136,69.3178 242.5,71C 240.833,72.6667 239.167,74.3333 237.5,76C 242.316,80.0549 243.816,85.2215 242,91.5C 238.964,94.7044 235.797,97.7044 232.5,100.5C 227.381,101.103 222.715,100.436 218.5,98.5C 218.486,77.477 208.153,69.3103 187.5,74C 178.178,80.1359 174.512,88.6359 176.5,99.5C 145.167,100.833 113.833,100.833 82.5,99.5C 84.8506,83.1935 77.8506,74.1935 61.5,72.5C 45.9876,74.158 38.9876,82.8246 40.5,98.5C 38.0122,100.388 35.0122,101.055 31.5,100.5C 21.7922,97.4336 17.2922,90.7669 18,80.5C 19.5,79 21,77.5 22.5,76C 20.7059,72.9123 19.0392,69.7456 17.5,66.5C 20.5,61.8333 23.5,57.1667 26.5,52.5C 30.4592,51.6735 34.4592,51.1735 38.5,51C 54.2471,43.2985 70.5805,36.9652 87.5,32C 102.167,31.3333 116.833,31.3333 131.5,32C 137.877,33.5108 144.21,35.1774 150.5,37C 159.067,41.4506 167.733,45.6172 176.5,49.5 Z"/></g>
<g><path style="opacity:1" fill="#fdfdfd" d="M 75.5,39.5 C 76.8734,39.3433 78.2068,39.51 79.5,40C 74.1667,43.3333 68.8333,46.6667 63.5,50C 67.1667,53.6667 70.8333,57.3333 74.5,61C 112.5,61.3333 150.5,61.6667 188.5,62C 203.194,64.8722 217.861,67.8722 232.5,71C 233.603,72.6804 233.27,74.1804 231.5,75.5C 233.483,77.9837 235.65,80.3171 238,82.5C 238.667,84.8333 238.667,87.1667 238,89.5C 236.167,91.3333 234.333,93.1667 232.5,95C 229.854,95.4974 227.187,95.6641 224.5,95.5C 223.52,77.8535 214.187,68.5202 196.5,67.5C 180.358,69.9701 172.025,79.3034 171.5,95.5C 143.833,95.5 116.167,95.5 88.5,95.5C 87.7432,78.5754 78.9099,69.2421 62,67.5C 45.2482,69.3358 36.4149,78.6691 35.5,95.5C 28.2414,95.0795 23.908,91.2462 22.5,84C 25.9675,79.6966 29.6341,75.5299 33.5,71.5C 31.517,69.0163 29.3504,66.6829 27,64.5C 26,65.5 25,66.5 24,67.5C 24.584,63.5034 26.4173,60.0034 29.5,57C 32.5,56.6667 35.5,56.3333 38.5,56C 50.9234,50.4499 63.2567,44.9499 75.5,39.5 Z"/></g>
<g><path style="opacity:1" fill="#babbc1" d="M 176.5,49.5 C 177.289,49.7828 177.956,50.2828 178.5,51C 173.316,51.8163 168.316,51.6497 163.5,50.5C 168.032,50.8182 172.366,50.4849 176.5,49.5 Z"/></g>
<g><path style="opacity:1" fill="#d3d4d8" d="M 115.5,41.5 C 115.5,46.5 115.5,51.5 115.5,56.5C 107.167,56.5 98.8333,56.5 90.5,56.5C 90.8064,53.6146 90.4731,50.9479 89.5,48.5C 89.7828,47.7109 90.2828,47.0442 91,46.5C 91.498,49.4816 91.6646,52.4816 91.5,55.5C 99.1667,55.5 106.833,55.5 114.5,55.5C 114.181,50.6367 114.514,45.97 115.5,41.5 Z"/></g>
<g><path style="opacity:1" fill="#8d8f99" d="M 209.5,105.5 C 216.982,106.492 224.648,106.825 232.5,106.5C 232.5,107.833 232.5,109.167 232.5,110.5C 162.5,110.5 92.5,110.5 22.5,110.5C 22.5,109.167 22.5,107.833 22.5,106.5C 31.5246,106.832 40.5246,106.498 49.5,105.5C 49.3764,104.893 49.0431,104.56 48.5,104.5C 44.0276,96.198 44.6943,88.3647 50.5,81C 57.2383,76.6931 64.2383,76.3597 71.5,80C 79.6302,87.342 80.6302,95.5087 74.5,104.5C 73.9569,104.56 73.6236,104.893 73.5,105.5C 110.664,106.83 147.664,106.83 184.5,105.5C 177.713,94.4274 179.713,85.2608 190.5,78C 199.352,75.4898 206.519,77.9898 212,85.5C 214.519,92.6586 213.686,99.3252 209.5,105.5 Z"/></g>
<g><path style="opacity:1" fill="#f9f9fa" d="M 58.5,81.5 C 69.3399,80.8382 74.1732,85.8382 73,96.5C 70.3152,104.415 64.8152,107.249 56.5,105C 46.7088,96.2534 47.3754,88.4201 58.5,81.5 Z"/></g>
<g><path style="opacity:1" fill="#fafafb" d="M 191.5,82.5 C 205.152,80.6474 210.652,86.3141 208,99.5C 204.364,105.177 199.197,107.01 192.5,105C 186.456,101.551 184.29,96.3848 186,89.5C 187.666,87.0043 189.5,84.671 191.5,82.5 Z"/></g>
<g><path style="opacity:1" fill="#92949d" d="M 54.5,93.5 C 57.021,93.4397 59.3543,94.1064 61.5,95.5C 63.7127,93.73 66.046,93.3966 68.5,94.5C 67.1243,99.6909 63.791,101.524 58.5,100C 56.0771,98.4293 54.7438,96.2626 54.5,93.5 Z"/></g>
<g><path style="opacity:1" fill="#93949e" d="M 190.5,93.5 C 192.912,93.3305 195.079,93.9972 197,95.5C 204.973,92.2972 206.139,93.7972 200.5,100C 194.598,101.559 191.264,99.392 190.5,93.5 Z"/></g>
<g><path style="opacity:1" fill="#bdbdc3" d="M 40.5,98.5 C 41.404,99.209 41.7373,100.209 41.5,101.5C 37.9581,101.813 34.6248,101.479 31.5,100.5C 35.0122,101.055 38.0122,100.388 40.5,98.5 Z"/></g>
<g><path style="opacity:1" fill="#d1d2d6" d="M 218.5,98.5 C 222.715,100.436 227.381,101.103 232.5,100.5C 227.695,101.487 222.695,101.821 217.5,101.5C 217.263,100.209 217.596,99.209 218.5,98.5 Z"/></g>
<g><path style="opacity:1" fill="#b7b8be" d="M 48.5,104.5 C 49.0431,104.56 49.3764,104.893 49.5,105.5C 40.5246,106.498 31.5246,106.832 22.5,106.5C 31.1667,105.833 39.8333,105.167 48.5,104.5 Z"/></g>
<g><path style="opacity:1" fill="#b6b7bd" d="M 74.5,104.5 C 110.996,105.498 147.663,105.832 184.5,105.5C 147.664,106.83 110.664,106.83 73.5,105.5C 73.6236,104.893 73.9569,104.56 74.5,104.5 Z"/></g>
<g><path style="opacity:1" fill="#bbbcc2" d="M 209.5,105.5 C 217.5,105.5 225.5,105.5 233.5,105.5C 233.784,107.415 233.451,109.081 232.5,110.5C 232.5,109.167 232.5,107.833 232.5,106.5C 224.648,106.825 216.982,106.492 209.5,105.5 Z"/></g>
</svg>
