<?xml version="1.0" encoding="UTF-8"?>
<!DOCTYPE svg PUBLIC "-//W3C//DTD SVG 1.1//EN" "http://www.w3.org/Graphics/SVG/1.1/DTD/svg11.dtd">
<svg xmlns="http://www.w3.org/2000/svg" version="1.1" width="262px" height="132px" style="shape-rendering:geometricPrecision; text-rendering:geometricPrecision; image-rendering:optimizeQuality; fill-rule:evenodd; clip-rule:evenodd" xmlns:xlink="http://www.w3.org/1999/xlink">
<g><path style="opacity:1" fill="#8f919b" d="M 37.5,21.5 C 73.1682,21.3333 108.835,21.5 144.5,22C 147.167,23.3333 149.833,24.6667 152.5,26C 161.167,34.6667 169.833,43.3333 178.5,52C 193.08,51.5901 207.413,53.2567 221.5,57C 224.618,58.0587 227.618,59.3921 230.5,61C 231.38,62.3561 231.714,63.8561 231.5,65.5C 228.813,65.3359 226.146,65.5026 223.5,66C 225.558,69.3968 228.558,71.0634 232.5,71C 237.803,76.4637 237.803,81.9637 232.5,87.5C 233.648,89.1487 234.981,90.6487 236.5,92C 231.727,95.5567 226.394,97.0567 220.5,96.5C 221.238,80.9396 213.905,72.6063 198.5,71.5C 189.358,72.4735 182.858,77.1401 179,85.5C 178.501,89.1516 178.335,92.8183 178.5,96.5C 151.5,96.5 124.5,96.5 97.5,96.5C 96.7444,76.914 86.7444,69.0807 67.5,73C 58.3388,78.1553 54.0054,85.9886 54.5,96.5C 43.8792,99.1104 35.5458,96.1104 29.5,87.5C 30.6053,86.1076 31.9386,84.941 33.5,84C 26.0174,84.4734 19.0174,82.9734 12.5,79.5C 11.3347,70.5185 11.168,61.5185 12,52.5C 16,49.8333 20,47.1667 24,44.5C 24.499,48.8206 24.6657,53.1539 24.5,57.5C 71.8345,57.6667 119.168,57.5 166.5,57C 168.638,55.5784 169.805,53.745 170,51.5C 164.833,46.3333 159.667,41.1667 154.5,36C 143.839,35.5002 133.172,35.3335 122.5,35.5C 123.287,41.1486 124.621,46.6486 126.5,52C 124.866,52.4935 123.199,52.6602 121.5,52.5C 120.482,47.0956 119.149,41.7623 117.5,36.5C 108.859,35.502 100.192,35.1686 91.5,35.5C 91.5,41.1667 91.5,46.8333 91.5,52.5C 89.8333,52.5 88.1667,52.5 86.5,52.5C 86.5,46.8333 86.5,41.1667 86.5,35.5C 85.1667,35.5 83.8333,35.5 82.5,35.5C 82.5,41.1667 82.5,46.8333 82.5,52.5C 80.8333,52.5 79.1667,52.5 77.5,52.5C 77.5,46.8333 77.5,41.1667 77.5,35.5C 68.5,35.5 59.5,35.5 50.5,35.5C 49.3403,41.1387 48.3403,46.8054 47.5,52.5C 41.5,52.5 35.5,52.5 29.5,52.5C 28.967,43.9304 30.1337,35.597 33,27.5C 34.332,25.34 35.832,23.34 37.5,21.5 Z"/></g>
<g><path style="opacity:1" fill="#f4f4f5" d="M 39.5,25.5 C 74.1683,25.3333 108.835,25.5 143.5,26C 145.996,27.0804 148.33,28.4138 150.5,30C 116.168,30.5 81.835,30.6667 47.5,30.5C 46.1667,36.5 44.8333,42.5 43.5,48.5C 40.1667,48.5 36.8333,48.5 33.5,48.5C 34.4197,40.4853 36.4197,32.8186 39.5,25.5 Z"/></g>
<g><path style="opacity:1" fill="#dfdfe3" d="M 20.5,70.5 C 19.8333,64.8333 19.1667,59.1667 18.5,53.5C 18.7828,52.7109 19.2828,52.0442 20,51.5C 20.4995,57.8246 20.6662,64.1579 20.5,70.5 Z"/></g>
<g><path style="opacity:1" fill="#fdfdfd" d="M 18.5,53.5 C 19.1667,59.1667 19.8333,64.8333 20.5,70.5C 21.8333,71.1667 22.8333,72.1667 23.5,73.5C 23.56,74.0431 23.8933,74.3764 24.5,74.5C 25.4909,70.5546 25.8242,66.5546 25.5,62.5C 73.0029,62.8321 120.336,62.4988 167.5,61.5C 169.848,59.3198 172.348,57.3198 175,55.5C 184.351,57.2492 193.851,58.0825 203.5,58C 208.5,59 213.5,60 218.5,61C 216.833,61.3333 215.167,61.6667 213.5,62C 217.535,65.7002 221.202,69.7002 224.5,74C 231.049,73.381 233.215,76.2143 231,82.5C 229.167,84.3333 227.333,86.1667 225.5,88C 229.718,90.6036 229.384,92.1036 224.5,92.5C 222.767,77.7695 214.434,69.7695 199.5,68.5C 185.081,69.7034 176.415,77.3701 173.5,91.5C 149.509,92.4997 125.509,92.8331 101.5,92.5C 99.4693,77.0577 90.636,69.0577 75,68.5C 60.349,69.9851 52.1823,77.9851 50.5,92.5C 44.5267,93.697 39.5267,92.197 35.5,88C 38.1667,85.3333 40.8333,82.6667 43.5,80C 35.8333,79.6667 28.1667,79.3333 20.5,79C 18.9194,78.2935 17.4194,77.4601 16,76.5C 15.1687,69.144 15.3354,61.8107 16.5,54.5C 17.1835,54.1373 17.8501,53.8039 18.5,53.5 Z"/></g>
<g><path style="opacity:1" fill="#eff0f1" d="M 167.5,61.5 C 120.336,62.4988 73.0029,62.8321 25.5,62.5C 25.8242,66.5546 25.4909,70.5546 24.5,74.5C 23.8933,74.3764 23.56,74.0431 23.5,73.5C 24.4834,69.7016 24.8168,65.7016 24.5,61.5C 72.1667,61.5 119.833,61.5 167.5,61.5 Z"/></g>
<g><path style="opacity:1" fill="#8d8f98" d="M 89.5,103.5 C 88.7109,103.783 88.0442,104.283 87.5,105C 120.833,105.667 154.167,105.667 187.5,105C 186.956,104.283 186.289,103.783 185.5,103.5C 179.81,92.553 182.143,83.7197 192.5,77C 202.743,74.0457 210.243,77.2124 215,86.5C 216.364,93.0487 215.198,99.0487 211.5,104.5C 216.792,105.495 222.125,105.828 227.5,105.5C 227.5,106.833 227.5,108.167 227.5,109.5C 159.833,109.5 92.1667,109.5 24.5,109.5C 24.5,108.167 24.5,106.833 24.5,105.5C 37.8375,105.667 51.1708,105.5 64.5,105C 62.9588,103.421 61.7922,101.587 61,99.5C 58.737,87.0137 63.737,79.3471 76,76.5C 91.9915,79.6088 96.4915,88.6088 89.5,103.5 Z"/></g>
<g><path style="opacity:1" fill="#f9f9fa" d="M 71.5,80.5 C 85.2674,79.4201 90.4341,85.4201 87,98.5C 80.2355,107.395 73.0689,107.728 65.5,99.5C 63.7378,95.9982 63.2378,92.3316 64,88.5C 66.0282,85.3078 68.5282,82.6411 71.5,80.5 Z"/></g>
<g><path style="opacity:1" fill="#f9f9fa" d="M 194.5,80.5 C 208.673,79.5176 213.839,85.8509 210,99.5C 200.528,108.31 192.861,106.977 187,95.5C 186.306,88.8877 188.806,83.8877 194.5,80.5 Z"/></g>
<g><path style="opacity:1" fill="#91939c" d="M 68.5,92.5 C 71.4966,93.1412 74.1633,94.4745 76.5,96.5C 78.9153,96.2811 79.9153,94.9477 79.5,92.5C 81.1667,92.5 82.8333,92.5 84.5,92.5C 82.7386,99.7549 78.4052,101.922 71.5,99C 69.0807,97.4912 68.0807,95.3245 68.5,92.5 Z"/></g>
<g><path style="opacity:1" fill="#92939d" d="M 191.5,92.5 C 194.497,93.1412 197.163,94.4745 199.5,96.5C 201.915,96.2811 202.915,94.9477 202.5,92.5C 204.167,92.5 205.833,92.5 207.5,92.5C 205.924,99.955 201.59,102.122 194.5,99C 192.081,97.4912 191.081,95.3245 191.5,92.5 Z"/></g>
<g><path style="opacity:1" fill="#eff0f1" d="M 89.5,103.5 C 121.5,104.833 153.5,104.833 185.5,103.5C 186.289,103.783 186.956,104.283 187.5,105C 154.167,105.667 120.833,105.667 87.5,105C 88.0442,104.283 88.7109,103.783 89.5,103.5 Z"/></g>
</svg>
