<?xml version="1.0" encoding="UTF-8"?>
<!DOCTYPE svg PUBLIC "-//W3C//DTD SVG 1.1//EN" "http://www.w3.org/Graphics/SVG/1.1/DTD/svg11.dtd">
<svg xmlns="http://www.w3.org/2000/svg" version="1.1" width="248px" height="113px" style="shape-rendering:geometricPrecision; text-rendering:geometricPrecision; image-rendering:optimizeQuality; fill-rule:evenodd; clip-rule:evenodd" xmlns:xlink="http://www.w3.org/1999/xlink">
    <g><path style="opacity:1" fill="#90919b" d="M 104.5,24.5 C 105.483,28.2984 105.817,32.2984 105.5,36.5C 135.833,36.5 166.167,36.5 196.5,36.5C 205.75,38.3949 214.75,41.0616 223.5,44.5C 220.562,45.0703 218.228,45.7369 216.5,46.5C 220.184,51.0098 224.851,54.0098 230.5,55.5C 230.666,60.8437 230.499,66.1771 230,71.5C 226.964,74.7044 223.797,77.7044 220.5,80.5C 217.612,81.0102 215.279,80.3435 213.5,78.5C 214.816,61.9934 207.316,52.9934 191,51.5C 174.792,54.5915 167.959,64.2582 170.5,80.5C 140.329,80.8314 110.329,80.4981 80.5,79.5C 82.4317,62.7749 75.0984,53.4415 58.5,51.5C 41.95,54.2706 34.95,63.9372 37.5,80.5C 29.3998,79.5491 24.2331,75.2158 22,67.5C 21.5014,63.8484 21.3347,60.1817 21.5,56.5C 25.4783,57.0344 28.4783,55.5344 30.5,52C 27.5,51.6667 24.5,51.3333 21.5,51C 31.4749,39.5568 44.1415,34.5568 59.5,36C 56.7034,34.7674 54.0368,33.2674 51.5,31.5C 58.3096,26.5245 64.9762,21.3578 71.5,16C 94.6396,11.6846 117.973,10.3512 141.5,12C 154.198,18.3489 166.864,24.6822 179.5,31C 176.167,31.6667 172.833,31.6667 169.5,31C 160.446,25.8061 151.112,21.1394 141.5,17C 129.167,16.3333 116.833,16.3333 104.5,17C 100.227,18.5354 95.8938,19.8688 91.5,21C 89.6487,22.6837 87.982,24.5171 86.5,26.5C 89.6135,30.7883 93.4468,34.1216 98,36.5C 99.1074,36.4148 100.107,36.0814 101,35.5C 101.876,31.7076 103.042,28.0409 104.5,24.5 Z"/></g>
    <g><path style="opacity:1" fill="#fdfdfe" d="M 165.5,71.5 C 164.566,72.5676 164.232,73.901 164.5,75.5C 138.5,75.5 112.5,75.5 86.5,75.5C 86.7678,73.901 86.4345,72.5676 85.5,71.5C 82.7918,56.4601 73.7918,48.4601 58.5,47.5C 43.5681,49.4259 34.2348,57.7592 30.5,72.5C 27.3819,69.3036 26.3819,65.6369 27.5,61.5C 32.6519,56.8485 37.6519,52.0151 42.5,47C 39.5,46.6667 36.5,46.3333 33.5,46C 37.7311,44.2852 42.0644,42.7852 46.5,41.5C 58.1714,41.6665 69.8381,41.4999 81.5,41C 80.9558,40.2828 80.2891,39.7828 79.5,39.5C 73.0794,37.1231 67.0794,33.9564 61.5,30C 67.1282,23.3768 74.2949,19.8768 83,19.5C 83.8333,19.6667 84.6667,19.8333 85.5,20C 83.316,22.0165 81.316,24.1831 79.5,26.5C 83.9848,31.4852 88.6515,36.3186 93.5,41C 128.167,41.3333 162.833,41.6667 197.5,42C 200.471,42.7943 203.471,43.461 206.5,44C 210.5,48 214.5,52 218.5,56C 220.65,57.4114 222.984,58.2447 225.5,58.5C 226.942,65.1026 225.109,70.4359 220,74.5C 216.918,56.0795 206.085,47.2461 187.5,48C 174.773,50.8906 167.44,58.7239 165.5,71.5 Z"/></g>
    <g><path style="opacity:1" fill="#d2d3d7" d="M 196.5,36.5 C 166.167,36.5 135.833,36.5 105.5,36.5C 105.817,32.2984 105.483,28.2984 104.5,24.5C 104.461,23.2438 104.961,22.2438 106,21.5C 106.499,26.1548 106.666,30.8215 106.5,35.5C 136.671,35.1686 166.671,35.5019 196.5,36.5 Z"/></g>
    <g><path style="opacity:1" fill="#b7b8be" d="M 79.5,39.5 C 80.2891,39.7828 80.9558,40.2828 81.5,41C 69.8381,41.4999 58.1714,41.6665 46.5,41.5C 57.5,40.8333 68.5,40.1667 79.5,39.5 Z"/></g>
    <g><path style="opacity:1" fill="#c7c8cd" d="M 223.5,44.5 C 224.289,44.7828 224.956,45.2828 225.5,46C 222.518,46.498 219.518,46.6646 216.5,46.5C 218.228,45.7369 220.562,45.0703 223.5,44.5 Z"/></g>
    <g><path style="opacity:1" fill="#8d8f99" d="M 72.5,84.5 C 71.9569,84.56 71.6236,84.8933 71.5,85.5C 107.5,86.8333 143.5,86.8333 179.5,85.5C 179.376,84.8933 179.043,84.56 178.5,84.5C 171.524,73.2682 173.857,64.4348 185.5,58C 198.67,55.239 206.337,60.4057 208.5,73.5C 208.508,77.4721 207.508,81.1388 205.5,84.5C 204.957,84.56 204.624,84.8933 204.5,85.5C 209.792,86.4948 215.125,86.8282 220.5,86.5C 220.5,87.8333 220.5,89.1667 220.5,90.5C 155.833,90.5 91.1667,90.5 26.5,90.5C 26.5,89.1667 26.5,87.8333 26.5,86.5C 33.1998,86.83 39.8665,86.4967 46.5,85.5C 46.3764,84.8933 46.0431,84.56 45.5,84.5C 38.9254,73.3814 41.2588,64.5481 52.5,58C 72.6054,56.7143 79.2721,65.5477 72.5,84.5 Z"/></g>
    <g><path style="opacity:1" fill="#f8f8f8" d="M 53.5,62.5 C 66.376,60.3408 71.876,65.6741 70,78.5C 63.1248,88.7411 55.7915,89.0744 48,79.5C 45.2691,72.3069 47.1025,66.6403 53.5,62.5 Z"/></g>
    <g><path style="opacity:1" fill="#f8f8f9" d="M 186.5,62.5 C 199.102,60.6026 204.602,65.9359 203,78.5C 198.613,86.4073 192.446,88.2407 184.5,84C 177.36,76.0266 178.027,68.8599 186.5,62.5 Z"/></g>
    <g><path style="opacity:1" fill="#8e909a" d="M 52.5,74.5 C 55.0444,74.1043 57.2111,74.771 59,76.5C 60.7889,74.771 62.9556,74.1043 65.5,74.5C 65.2702,78.5652 63.1035,80.8985 59,81.5C 55.2364,80.5723 53.0697,78.2389 52.5,74.5 Z"/></g>
    <g><path style="opacity:1" fill="#91939c" d="M 185.5,74.5 C 189.833,75.8333 194.167,75.8333 198.5,74.5C 196.062,82.422 191.896,83.422 186,77.5C 185.517,76.552 185.351,75.552 185.5,74.5 Z"/></g>
    <g><path style="opacity:1" fill="#d2d3d7" d="M 85.5,71.5 C 86.4345,72.5676 86.7678,73.901 86.5,75.5C 112.5,75.5 138.5,75.5 164.5,75.5C 164.232,73.901 164.566,72.5676 165.5,71.5C 165.5,73.1667 165.5,74.8333 165.5,76.5C 138.833,76.5 112.167,76.5 85.5,76.5C 85.5,74.8333 85.5,73.1667 85.5,71.5 Z"/></g>
    <g><path style="opacity:1" fill="#c5c6cb" d="M 80.5,79.5 C 110.329,80.4981 140.329,80.8314 170.5,80.5C 140.331,81.8297 109.997,81.8297 79.5,80.5C 79.6236,79.8933 79.9569,79.56 80.5,79.5 Z"/></g>
    <g><path style="opacity:1" fill="#babbc1" d="M 213.5,78.5 C 215.279,80.3435 217.612,81.0102 220.5,80.5C 218.052,81.4731 215.385,81.8064 212.5,81.5C 212.263,80.209 212.596,79.209 213.5,78.5 Z"/></g>
    <g><path style="opacity:1" fill="#d1d2d6" d="M 45.5,84.5 C 46.0431,84.56 46.3764,84.8933 46.5,85.5C 39.8665,86.4967 33.1998,86.83 26.5,86.5C 32.8333,85.8333 39.1667,85.1667 45.5,84.5 Z"/></g>
    <g><path style="opacity:1" fill="#d2d3d7" d="M 72.5,84.5 C 107.833,85.8333 143.167,85.8333 178.5,84.5C 179.043,84.56 179.376,84.8933 179.5,85.5C 143.5,86.8333 107.5,86.8333 71.5,85.5C 71.6236,84.8933 71.9569,84.56 72.5,84.5 Z"/></g>
    <g><path style="opacity:1" fill="#d3d4d8" d="M 205.5,84.5 C 210.5,85.1667 215.5,85.8333 220.5,86.5C 215.125,86.8282 209.792,86.4948 204.5,85.5C 204.624,84.8933 204.957,84.56 205.5,84.5 Z"/></g>
</svg>
