<?xml version="1.0" encoding="UTF-8"?>
<!DOCTYPE svg PUBLIC "-//W3C//DTD SVG 1.1//EN" "http://www.w3.org/Graphics/SVG/1.1/DTD/svg11.dtd">
<svg xmlns="http://www.w3.org/2000/svg" version="1.1" width="253px" height="131px" style="shape-rendering:geometricPrecision; text-rendering:geometricPrecision; image-rendering:optimizeQuality; fill-rule:evenodd; clip-rule:evenodd" xmlns:xlink="http://www.w3.org/1999/xlink">
<g><path style="opacity:1" fill="#90929c" d="M 203.5,47.5 C 201.393,48.4682 199.059,48.8016 196.5,48.5C 190.98,44.2445 185.313,40.2445 179.5,36.5C 167.678,35.5049 155.678,35.1716 143.5,35.5C 143.187,39.0419 143.521,42.3752 144.5,45.5C 145.812,46.1451 146.812,47.1451 147.5,48.5C 168.347,51.9179 189.347,53.7512 210.5,54C 216.5,57 222.5,60 228.5,63C 229.687,64.0195 230.687,65.1861 231.5,66.5C 227.304,72.3555 228.971,75.3555 236.5,75.5C 236.666,80.1785 236.499,84.8452 236,89.5C 233.5,92 231,94.5 228.5,97C 225.854,97.4974 223.187,97.6641 220.5,97.5C 220.293,78.5555 210.96,71.3888 192.5,76C 184.184,80.8003 180.851,87.967 182.5,97.5C 143.5,97.5 104.5,97.5 65.5,97.5C 65.3355,78.5715 56.0022,71.4048 37.5,76C 30.1859,80.4634 26.3526,86.9634 26,95.5C 22.8416,92.9204 19.5082,90.5871 16,88.5C 12.1615,83.4483 10.6615,77.7816 11.5,71.5C 13.1667,71.5 14.8333,71.5 16.5,71.5C 16.5,67.1667 16.5,62.8333 16.5,58.5C 36.8443,58.833 57.1776,58.4996 77.5,57.5C 77.3764,56.8933 77.0431,56.56 76.5,56.5C 75.3734,55.8783 74.3734,55.045 73.5,54C 54.5029,53.5001 35.5029,53.3334 16.5,53.5C 17.5663,44.4352 19.0663,35.4352 21,26.5C 22.1667,25.3333 23.3333,24.1667 24.5,23C 70.5,22.3333 116.5,22.3333 162.5,23C 167.58,24.8043 172.58,26.8043 177.5,29C 186.02,35.4218 194.687,41.5884 203.5,47.5 Z"/></g>
<g><path style="opacity:1" fill="#fefefe" d="M 177.5,92.5 C 141.833,92.5 106.167,92.5 70.5,92.5C 70.7373,91.209 70.404,90.209 69.5,89.5C 69.1161,85.3961 67.6161,81.7294 65,78.5C 47.2769,64.347 33.1102,67.347 22.5,87.5C 18.6045,84.371 16.2712,80.371 15.5,75.5C 17.1667,75.5 18.8333,75.5 20.5,75.5C 20.5,71.1667 20.5,66.8333 20.5,62.5C 42.8433,62.833 65.1766,62.4997 87.5,61.5C 83.3484,57.8489 79.3484,54.0156 75.5,50C 57.5031,49.5001 39.5031,49.3334 21.5,49.5C 22.5487,43.2056 23.382,36.8723 24,30.5C 24.3742,29.5838 24.8742,28.7504 25.5,28C 71.5,27.3333 117.5,27.3333 163.5,28C 166.774,29.2023 170.107,30.2023 173.5,31C 162.172,31.4999 150.838,31.6665 139.5,31.5C 137.282,41.3937 140.282,48.8937 148.5,54C 169.106,56.4606 189.772,58.1273 210.5,59C 215.869,61.6733 221.202,64.3399 226.5,67C 224.981,68.3513 223.648,69.8513 222.5,71.5C 225.167,74.8333 228.167,77.8333 231.5,80.5C 232.647,82.7649 232.814,85.0982 232,87.5C 230,89.5 228,91.5 226,93.5C 222.632,74.4743 211.466,66.9743 192.5,71C 183.872,75.7924 178.872,82.9591 177.5,92.5 Z"/></g>
<g><path style="opacity:1" fill="#c4c5ca" d="M 179.5,36.5 C 167.833,36.5 156.167,36.5 144.5,36.5C 144.5,39.5 144.5,42.5 144.5,45.5C 143.521,42.3752 143.187,39.0419 143.5,35.5C 155.678,35.1716 167.678,35.5049 179.5,36.5 Z"/></g>
<g><path style="opacity:1" fill="#babbc1" d="M 203.5,47.5 C 204.289,47.7828 204.956,48.2828 205.5,49C 202.304,49.8045 199.304,49.6378 196.5,48.5C 199.059,48.8016 201.393,48.4682 203.5,47.5 Z"/></g>
<g><path style="opacity:1" fill="#b7b8be" d="M 76.5,56.5 C 77.0431,56.56 77.3764,56.8933 77.5,57.5C 57.1776,58.4996 36.8443,58.833 16.5,58.5C 16.5,62.8333 16.5,67.1667 16.5,71.5C 14.8333,71.5 13.1667,71.5 11.5,71.5C 12.5676,70.5655 13.901,70.2322 15.5,70.5C 15.5,66.1667 15.5,61.8333 15.5,57.5C 36.0069,57.8305 56.3402,57.4972 76.5,56.5 Z"/></g>
<g><path style="opacity:1" fill="#8d8f99" d="M 227.5,104.5 C 227.5,105.833 227.5,107.167 227.5,108.5C 157.167,108.5 86.8333,108.5 16.5,108.5C 15.5655,107.432 15.2322,106.099 15.5,104.5C 22.175,104.666 28.8417,104.5 35.5,104C 33.9512,102.786 32.7845,101.286 32,99.5C 29.4394,87.6104 34.1061,80.6104 46,78.5C 60.8517,82.0596 64.685,90.5596 57.5,104C 101.833,104.667 146.167,104.667 190.5,104C 184.444,95.4484 185.444,87.7817 193.5,81C 203.315,76.4884 210.815,78.9884 216,88.5C 217.29,94.2723 216.123,99.4389 212.5,104C 217.489,104.499 222.489,104.666 227.5,104.5 Z"/></g>
<g><path style="opacity:1" fill="#fafafa" d="M 41.5,83.5 C 55.732,83.1403 59.732,89.3069 53.5,102C 41.8338,106.997 36.0005,103.164 36,90.5C 37.371,87.7339 39.2043,85.4006 41.5,83.5 Z"/></g>
<g><path style="opacity:1" fill="#f9fafa" d="M 197.5,83.5 C 208.95,82.4459 213.45,87.4459 211,98.5C 207.637,104.484 202.803,105.984 196.5,103C 191.777,99.7464 190.277,95.2464 192,89.5C 193.36,86.9774 195.193,84.9774 197.5,83.5 Z"/></g>
<g><path style="opacity:1" fill="#e0e0e3" d="M 69.5,89.5 C 70.404,90.209 70.7373,91.209 70.5,92.5C 106.167,92.5 141.833,92.5 177.5,92.5C 141.671,93.4984 105.671,93.8318 69.5,93.5C 69.5,92.1667 69.5,90.8333 69.5,89.5 Z"/></g>
<g><path style="opacity:1" fill="#9799a2" d="M 39.5,93.5 C 41.912,93.3305 44.0786,93.9972 46,95.5C 47.8792,93.9872 50.0459,93.3205 52.5,93.5C 49.9454,101.185 45.7788,102.185 40,96.5C 39.5172,95.552 39.3505,94.552 39.5,93.5 Z"/></g>
<g><path style="opacity:1" fill="#94969f" d="M 195.5,93.5 C 197.954,93.3205 200.121,93.9872 202,95.5C 203.997,93.621 206.164,93.2877 208.5,94.5C 206.54,98.979 203.207,100.479 198.5,99C 196.393,97.7365 195.393,95.9032 195.5,93.5 Z"/></g>
<g><path style="opacity:1" fill="#c5c6cb" d="M 227.5,104.5 C 228.451,105.919 228.784,107.585 228.5,109.5C 157.665,109.833 86.998,109.499 16.5,108.5C 86.8333,108.5 157.167,108.5 227.5,108.5C 227.5,107.167 227.5,105.833 227.5,104.5 Z"/></g>
</svg>
