<?xml version="1.0" encoding="UTF-8"?>
<!DOCTYPE svg PUBLIC "-//W3C//DTD SVG 1.1//EN" "http://www.w3.org/Graphics/SVG/1.1/DTD/svg11.dtd">
<svg xmlns="http://www.w3.org/2000/svg" version="1.1" width="278px" height="131px" style="shape-rendering:geometricPrecision; text-rendering:geometricPrecision; image-rendering:optimizeQuality; fill-rule:evenodd; clip-rule:evenodd" xmlns:xlink="http://www.w3.org/1999/xlink">
<g><path style="opacity:1" fill="#8f919b" d="M 24.5,50.5 C 29.5111,50.6659 34.5111,50.4993 39.5,50C 38.7562,48.9614 37.7562,48.4614 36.5,48.5C 32.4224,47.863 28.5891,46.5297 25,44.5C 24.3333,41.1667 24.3333,37.8333 25,34.5C 33.42,29.7082 41.5867,24.5415 49.5,19C 80.5,18.3333 111.5,18.3333 142.5,19C 153.833,25.6667 165.167,32.3333 176.5,39C 171.833,39.6667 167.167,39.6667 162.5,39C 155.989,34.5774 149.655,29.9108 143.5,25C 118.833,24.3333 94.1667,24.3333 69.5,25C 64.7738,27.6898 60.4404,30.8565 56.5,34.5C 61.3043,36.7681 66.3043,38.4348 71.5,39.5C 74.4003,28.7594 76.067,28.9261 76.5,40C 88.1689,41.5679 99.8355,43.0679 111.5,44.5C 111.5,39.5 111.5,34.5 111.5,29.5C 113.5,29.5 115.5,29.5 117.5,29.5C 118.218,34.3229 119.551,38.9896 121.5,43.5C 145.826,44.3331 170.16,44.8331 194.5,45C 206.143,46.8123 217.81,48.4789 229.5,50C 231.019,51.3513 232.352,52.8513 233.5,54.5C 232.5,55.1667 231.5,55.8333 230.5,56.5C 232.984,59.4843 235.65,62.3176 238.5,65C 240.473,65.4955 242.473,65.6621 244.5,65.5C 244.662,67.5273 244.495,69.5273 244,71.5C 242.5,73 241,74.5 239.5,76C 241.359,79.2458 243.025,82.5791 244.5,86C 241.167,89.3333 237.833,92.6667 234.5,96C 231.5,96.6667 228.5,96.6667 225.5,96C 227.938,78.2662 220.272,68.0995 202.5,65.5C 184.483,67.5503 176.483,77.5503 178.5,95.5C 148.506,96.6665 118.506,96.8332 88.5,96C 90.9276,78.2572 83.261,68.0905 65.5,65.5C 47.1741,67.8124 39.1741,78.1458 41.5,96.5C 39.1432,96.6633 36.8098,96.4966 34.5,96C 29.6667,91.1667 24.8333,86.3333 20,81.5C 19.5006,76.1771 19.334,70.8437 19.5,65.5C 24.0927,66.5817 27.0927,64.915 28.5,60.5C 25.8333,58.5 23.1667,56.5 20.5,54.5C 21.5213,52.812 22.8546,51.4787 24.5,50.5 Z"/></g>
<g><path style="opacity:1" fill="#fdfdfd" d="M 32.5,55.5 C 45.1711,55.6666 57.8377,55.4999 70.5,55C 69.4734,54.4867 68.4734,53.9867 67.5,53.5C 54.7612,49.698 42.0945,45.698 29.5,41.5C 29.178,39.2776 29.8446,37.4443 31.5,36C 36.8333,32.6667 42.1667,29.3333 47.5,26C 51.5554,23.6597 55.8887,22.993 60.5,24C 55.0087,28.2459 49.3421,32.2459 43.5,36C 52.9535,38.862 62.2868,42.0287 71.5,45.5C 72.6891,45.2444 73.8558,44.9111 75,44.5C 88.7881,46.8269 102.621,48.8269 116.5,50.5C 116.451,45.4612 117.118,45.2945 118.5,50C 145.167,50.3333 171.833,50.6667 198.5,51C 206.182,52.2403 213.849,53.5736 221.5,55C 226.833,60.3333 232.167,65.6667 237.5,71C 235.981,72.3513 234.648,73.8513 233.5,75.5C 235.039,78.7456 236.706,81.9123 238.5,85C 236.333,87.1667 234.167,89.3333 232,91.5C 228.196,66.3574 214.03,56.8574 189.5,63C 178.299,69.2401 172.632,78.7401 172.5,91.5C 146.5,91.5 120.5,91.5 94.5,91.5C 94.2366,75.7381 86.5699,65.5714 71.5,61C 50.6353,59.1849 38.4686,68.6849 35,89.5C 31.6667,86.1667 28.3333,82.8333 25,79.5C 24.502,76.5184 24.3354,73.5184 24.5,70.5C 25.552,70.6495 26.552,70.4828 27.5,70C 30.6667,66.8333 33.8333,63.6667 37,60.5C 37.6667,59.8333 37.6667,59.1667 37,58.5C 35.3484,57.6006 33.8484,56.6006 32.5,55.5 Z"/></g>
<g><path style="opacity:1" fill="#c2c3c8" d="M 36.5,48.5 C 37.7562,48.4614 38.7562,48.9614 39.5,50C 34.5111,50.4993 29.5111,50.6659 24.5,50.5C 28.5,49.8333 32.5,49.1667 36.5,48.5 Z"/></g>
<g><path style="opacity:1" fill="#b7b8be" d="M 67.5,53.5 C 68.4734,53.9867 69.4734,54.4867 70.5,55C 57.8377,55.4999 45.1711,55.6666 32.5,55.5C 43.5962,54.814 55.2629,54.1473 67.5,53.5 Z"/></g>
<g><path style="opacity:1" fill="#8d8f99" d="M 79.5,103.5 C 115.095,104.663 151.429,104.829 188.5,104C 187.934,103.005 187.267,102.172 186.5,101.5C 179.033,87.911 182.366,77.7443 196.5,71C 213.461,69.6271 221.628,77.4604 221,94.5C 219.559,97.8798 217.726,101.047 215.5,104C 221.825,104.5 228.158,104.666 234.5,104.5C 234.5,106.167 234.5,107.833 234.5,109.5C 164.5,109.5 94.5,109.5 24.5,109.5C 24.5,107.833 24.5,106.167 24.5,104.5C 33.5246,104.832 42.5246,104.498 51.5,103.5C 51.3764,102.893 51.0431,102.56 50.5,102.5C 43.2647,90.0213 45.5981,79.8546 57.5,72C 72.3983,68.7804 81.3983,74.6137 84.5,89.5C 83.6171,94.4846 81.9504,99.1513 79.5,103.5 Z"/></g>
<g><path style="opacity:1" fill="#f9f9f9" d="M 61.5,75.5 C 75.2073,75.3751 80.7073,82.0418 78,95.5C 73.7811,103.687 67.2811,106.187 58.5,103C 51.9192,98.4862 49.7526,92.3196 52,84.5C 54.4057,80.5915 57.5724,77.5915 61.5,75.5 Z"/></g>
<g><path style="opacity:1" fill="#f9f9fa" d="M 198.5,75.5 C 212.163,75.3354 217.663,82.002 215,95.5C 209.173,105.288 201.506,106.955 192,100.5C 185.61,89.8107 187.776,81.4773 198.5,75.5 Z"/></g>
<g><path style="opacity:1" fill="#8e909a" d="M 56.5,90.5 C 58.288,90.2148 59.9547,90.5481 61.5,91.5C 64.2252,95.4507 66.8918,95.284 69.5,91C 70.9437,90.2195 72.277,90.3861 73.5,91.5C 70.98,98.4276 66.3133,100.261 59.5,97C 57.0807,95.4912 56.0807,93.3245 56.5,90.5 Z"/></g>
<g><path style="opacity:1" fill="#8d8f99" d="M 193.5,90.5 C 195.167,90.5 196.833,90.5 198.5,90.5C 198.077,93.2431 199.244,94.5765 202,94.5C 203.871,94.2906 205.038,93.2906 205.5,91.5C 207.045,90.5481 208.712,90.2148 210.5,90.5C 208.628,98.2669 203.961,100.434 196.5,97C 194.549,95.2658 193.549,93.0991 193.5,90.5 Z"/></g>
<g><path style="opacity:1" fill="#eff0f1" d="M 186.5,101.5 C 187.267,102.172 187.934,103.005 188.5,104C 151.429,104.829 115.095,104.663 79.5,103.5C 115.516,104.16 151.182,103.494 186.5,101.5 Z"/></g>
<g><path style="opacity:1" fill="#e0e0e3" d="M 50.5,102.5 C 51.0431,102.56 51.3764,102.893 51.5,103.5C 42.5246,104.498 33.5246,104.832 24.5,104.5C 33.1667,103.833 41.8333,103.167 50.5,102.5 Z"/></g>
</svg>
