<?xml version="1.0" encoding="UTF-8"?>
<!DOCTYPE svg PUBLIC "-//W3C//DTD SVG 1.1//EN" "http://www.w3.org/Graphics/SVG/1.1/DTD/svg11.dtd">
<svg xmlns="http://www.w3.org/2000/svg" version="1.1" width="273px" height="136px" style="shape-rendering:geometricPrecision; text-rendering:geometricPrecision; image-rendering:optimizeQuality; fill-rule:evenodd; clip-rule:evenodd" xmlns:xlink="http://www.w3.org/1999/xlink">
<g><path style="opacity:1" fill="#8f919b" d="M 156.5,33.5 C 140.342,32.5036 124.009,32.1702 107.5,32.5C 107.177,38.69 107.51,44.69 108.5,50.5C 110.273,51.8923 112.273,53.059 114.5,54C 119.489,54.4993 124.489,54.6659 129.5,54.5C 130.489,49.0247 130.822,43.358 130.5,37.5C 131.5,37.5 132.5,37.5 133.5,37.5C 133.178,43.358 133.511,49.0247 134.5,54.5C 163.835,54.3334 193.169,54.5 222.5,55C 226.876,56.4031 231.21,57.9031 235.5,59.5C 234.352,61.1487 233.019,62.6487 231.5,64C 234.818,68.1109 239.151,69.6109 244.5,68.5C 245.464,73.6496 244.13,77.9829 240.5,81.5C 244.46,85.0667 245.46,89.4 243.5,94.5C 238.699,96.6571 233.699,97.9904 228.5,98.5C 230.928,81.0976 223.428,71.4309 206,69.5C 193.973,69.8536 186.307,75.8536 183,87.5C 182.421,91.2027 182.588,94.8694 183.5,98.5C 154.833,98.5 126.167,98.5 97.5,98.5C 97.5,97.5 97.5,96.5 97.5,95.5C 96.3805,74.2577 85.3805,66.091 64.5,71C 54.6826,76.6637 50.3493,85.1637 51.5,96.5C 45.588,98.4563 39.2547,99.1229 32.5,98.5C 27.8665,96.4397 27.5332,93.9397 31.5,91C 30.2341,90.6905 29.0674,90.1905 28,89.5C 25.3333,85.5 22.6667,81.5 20,77.5C 19.5005,71.5092 19.3338,65.5092 19.5,59.5C 22.6305,60.0922 24.9639,59.0922 26.5,56.5C 27.2891,56.2172 27.9558,55.7172 28.5,55C 25.854,54.5026 23.1873,54.3359 20.5,54.5C 21.5,53.1667 22.5,51.8333 23.5,50.5C 45.8358,50.6666 68.1692,50.5 90.5,50C 89.2949,48.6244 87.9616,47.4577 86.5,46.5C 87.1782,39.9575 89.5115,34.1242 93.5,29C 115.831,28.5 138.164,28.3334 160.5,28.5C 160.215,30.288 160.548,31.9547 161.5,33.5C 169.833,39 178.167,44.5 186.5,50C 183.833,50.6667 181.167,50.6667 178.5,50C 171.286,44.2386 163.953,38.7386 156.5,33.5 Z"/></g>
<g><path style="opacity:1" fill="#e1e1e4" d="M 156.5,33.5 C 140.5,33.5 124.5,33.5 108.5,33.5C 108.5,39.1667 108.5,44.8333 108.5,50.5C 107.51,44.69 107.177,38.69 107.5,32.5C 124.009,32.1702 140.342,32.5036 156.5,33.5 Z"/></g>
<g><path style="opacity:1" fill="#fdfdfd" d="M 34.5,55.5 C 56.5101,55.833 78.5101,55.4997 100.5,54.5C 100.376,53.8933 100.043,53.56 99.5,53.5C 95.9885,50.8217 92.9885,47.655 90.5,44C 91.4032,39.9446 93.0699,36.2779 95.5,33C 98.146,32.5026 100.813,32.3359 103.5,32.5C 103.334,39.5079 103.5,46.5079 104,53.5C 107.453,55.4758 110.953,57.3091 114.5,59C 151.167,59.3333 187.833,59.6667 224.5,60C 225.5,60.3333 226.5,60.6667 227.5,61C 225.993,61.8373 225.493,63.0039 226,64.5C 228.5,67 231,69.5 233.5,72C 235.81,72.4966 238.143,72.6633 240.5,72.5C 240.649,73.552 240.483,74.552 240,75.5C 237.982,77.3501 236.149,79.3501 234.5,81.5C 236.149,83.6499 237.982,85.6499 240,87.5C 240.49,88.7932 240.657,90.1266 240.5,91.5C 238.173,91.6646 236.007,92.3313 234,93.5C 230.483,71.335 217.649,62.5016 195.5,67C 184.101,72.6339 178.434,81.8006 178.5,94.5C 152.833,94.5 127.167,94.5 101.5,94.5C 101.381,76.6096 92.3809,66.9429 74.5,65.5C 56.8791,67.1214 47.8791,76.788 47.5,94.5C 43.4862,94.6655 39.4862,94.4988 35.5,94C 38.1667,91.3333 40.8333,88.6667 43.5,86C 39.1667,85.6667 34.8333,85.3333 30.5,85C 21.3596,73.5889 22.693,63.7556 34.5,55.5 Z"/></g>
<g><path style="opacity:1" fill="#b6b7bd" d="M 134.5,54.5 C 133.511,49.0247 133.178,43.358 133.5,37.5C 132.5,37.5 131.5,37.5 130.5,37.5C 130.822,43.358 130.489,49.0247 129.5,54.5C 129.5,48.5 129.5,42.5 129.5,36.5C 131.167,36.5 132.833,36.5 134.5,36.5C 134.5,42.5 134.5,48.5 134.5,54.5 Z"/></g>
<g><path style="opacity:1" fill="#edeef0" d="M 86.5,46.5 C 87.9616,47.4577 89.2949,48.6244 90.5,50C 68.1692,50.5 45.8358,50.6666 23.5,50.5C 44.6627,49.6681 65.9961,49.1681 87.5,49C 86.7476,48.3292 86.4142,47.4959 86.5,46.5 Z"/></g>
<g><path style="opacity:1" fill="#d1d2d6" d="M 20.5,54.5 C 23.1873,54.3359 25.854,54.5026 28.5,55C 27.9558,55.7172 27.2891,56.2172 26.5,56.5C 23.8822,55.944 21.8822,55.2773 20.5,54.5 Z"/></g>
<g><path style="opacity:1" fill="#e1e1e4" d="M 99.5,53.5 C 100.043,53.56 100.376,53.8933 100.5,54.5C 78.5101,55.4997 56.5101,55.833 34.5,55.5C 56.1667,54.8333 77.8333,54.1667 99.5,53.5 Z"/></g>
<g><path style="opacity:1" fill="#8d8f99" d="M 88.5,104.5 C 87.7109,104.783 87.0442,105.283 86.5,106C 122.167,106.667 157.833,106.667 193.5,106C 192.956,105.283 192.289,104.783 191.5,104.5C 183.677,91.0114 186.677,80.8447 200.5,74C 219.539,73.0392 227.039,81.8726 223,100.5C 221.859,102.609 220.359,104.442 218.5,106C 222.486,106.499 226.486,106.666 230.5,106.5C 230.5,107.833 230.5,109.167 230.5,110.5C 164.5,110.5 98.5,110.5 32.5,110.5C 32.5,109.167 32.5,107.833 32.5,106.5C 42.5056,106.666 52.5056,106.5 62.5,106C 54.1834,97.9193 53.3501,89.086 60,79.5C 68.6341,72.025 77.8007,71.525 87.5,78C 94.8686,86.6581 95.2019,95.4914 88.5,104.5 Z"/></g>
<g><path style="opacity:1" fill="#f9f9f9" d="M 71.5,77.5 C 79.5933,77.2955 85.0933,80.9622 88,88.5C 88.0451,103.797 80.8784,108.963 66.5,104C 60.1524,98.0526 58.9857,91.2193 63,83.5C 65.3218,80.6047 68.1552,78.6047 71.5,77.5 Z"/></g>
<g><path style="opacity:1" fill="#fafafa" d="M 202.5,77.5 C 215.529,78.0243 221.029,84.691 219,97.5C 213.376,106.781 205.876,108.614 196.5,103C 189.57,92.2752 191.57,83.7752 202.5,77.5 Z"/></g>
<g><path style="opacity:1" fill="#90929b" d="M 64.5,92.5 C 66.1667,92.5 67.8333,92.5 69.5,92.5C 69.3524,95.3523 70.6857,97.019 73.5,97.5C 77.028,95.9436 80.3613,94.2769 83.5,92.5C 83.15,98.3479 79.9834,101.348 74,101.5C 68.3897,101.056 65.223,98.0559 64.5,92.5 Z"/></g>
<g><path style="opacity:1" fill="#90929b" d="M 196.5,92.5 C 199.74,93.8771 202.906,95.5438 206,97.5C 209.094,95.5438 212.26,93.8771 215.5,92.5C 214.072,100.399 209.405,103.233 201.5,101C 198.288,98.9806 196.622,96.1473 196.5,92.5 Z"/></g>
<g><path style="opacity:1" fill="#c6c7cc" d="M 51.5,96.5 C 52.404,97.209 52.7373,98.209 52.5,99.5C 45.6457,99.824 38.979,99.4907 32.5,98.5C 39.2547,99.1229 45.588,98.4563 51.5,96.5 Z"/></g>
<g><path style="opacity:1" fill="#c5c6cb" d="M 97.5,95.5 C 97.5,96.5 97.5,97.5 97.5,98.5C 126.167,98.5 154.833,98.5 183.5,98.5C 154.671,99.498 125.671,99.8314 96.5,99.5C 96.2322,97.901 96.5655,96.5676 97.5,95.5 Z"/></g>
<g><path style="opacity:1" fill="#eff0f1" d="M 88.5,104.5 C 122.833,105.833 157.167,105.833 191.5,104.5C 192.289,104.783 192.956,105.283 193.5,106C 157.833,106.667 122.167,106.667 86.5,106C 87.0442,105.283 87.7109,104.783 88.5,104.5 Z"/></g>
<g><path style="opacity:1" fill="#d2d3d7" d="M 230.5,106.5 C 231.451,107.919 231.784,109.585 231.5,111.5C 164.998,111.832 98.6646,111.499 32.5,110.5C 98.5,110.5 164.5,110.5 230.5,110.5C 230.5,109.167 230.5,107.833 230.5,106.5 Z"/></g>
</svg>
