<?xml version="1.0" encoding="UTF-8"?>
<!DOCTYPE svg PUBLIC "-//W3C//DTD SVG 1.1//EN" "http://www.w3.org/Graphics/SVG/1.1/DTD/svg11.dtd">
<svg xmlns="http://www.w3.org/2000/svg" version="1.1" width="256px" height="123px" style="shape-rendering:geometricPrecision; text-rendering:geometricPrecision; image-rendering:optimizeQuality; fill-rule:evenodd; clip-rule:evenodd" xmlns:xlink="http://www.w3.org/1999/xlink">
<g><path style="opacity:1" fill="#90929b" d="M 232.5,84.5 C 227.5,84.5 222.5,84.5 217.5,84.5C 217.806,81.6146 217.473,78.9479 216.5,76.5C 212.779,62.6339 203.779,56.8005 189.5,59C 179.143,62.5171 173.477,69.6838 172.5,80.5C 172.5,81.8333 172.5,83.1667 172.5,84.5C 141.5,84.5 110.5,84.5 79.5,84.5C 79.0159,63.8479 68.6826,55.6812 48.5,60C 39.0371,65.4249 34.7038,73.5916 35.5,84.5C 28.9208,84.3625 22.7542,82.6959 17,79.5C 15.4964,76.3159 13.9964,73.1493 12.5,70C 14.3513,68.3163 16.018,66.4829 17.5,64.5C 16.0869,61.3388 14.4203,58.3388 12.5,55.5C 15.4465,54.6786 18.4465,54.1786 21.5,54C 20.1667,52.6667 18.8333,51.3333 17.5,50C 20.8333,46.6667 24.1667,43.3333 27.5,40C 35.8333,39.6667 44.1667,39.3333 52.5,39C 51.4293,38.1482 50.4293,37.3149 49.5,36.5C 55.5,35.8333 61.5,35.1667 67.5,34.5C 69.2959,33.2073 70.9625,31.7073 72.5,30C 74.1341,29.5065 75.8008,29.3398 77.5,29.5C 77.5,31.1667 77.5,32.8333 77.5,34.5C 87.3898,36.8055 97.3898,38.4722 107.5,39.5C 107.5,37.8333 107.5,36.1667 107.5,34.5C 111.478,33.9656 114.478,35.4656 116.5,39C 126.5,39.6667 136.5,39.6667 146.5,39C 142.167,34.6667 137.833,30.3333 133.5,26C 137.167,25.3333 140.833,25.3333 144.5,26C 153,29.4112 160.667,34.0779 167.5,40C 189.478,43.5775 211.144,48.5775 232.5,55C 230.833,56.6667 229.167,58.3333 227.5,60C 230.585,61.9596 233.752,63.7929 237,65.5C 238.654,71.1519 237.321,75.8186 233,79.5C 232.506,81.1341 232.34,82.8008 232.5,84.5 Z"/></g>
<g><path style="opacity:1" fill="#b7b8be" d="M 67.5,34.5 C 61.5,35.1667 55.5,35.8333 49.5,36.5C 48.7109,36.2172 48.0442,35.7172 47.5,35C 54.1583,34.5004 60.825,34.3337 67.5,34.5 Z"/></g>
<g><path style="opacity:1" fill="#fdfdfd" d="M 21.5,61.5 C 25.6845,60.8336 30.0178,60.1669 34.5,59.5C 34.3764,58.8933 34.0431,58.56 33.5,58.5C 30.3694,55.8712 27.3694,53.0379 24.5,50C 26.0375,48.2927 27.7041,46.7927 29.5,45.5C 41.1857,45.8322 52.8523,45.4989 64.5,44.5C 64.3764,43.8933 64.0431,43.56 63.5,43.5C 62.3734,42.8783 61.3734,42.045 60.5,41C 63.5,40.6667 66.5,40.3333 69.5,40C 71.557,36.7002 72.557,36.8669 72.5,40.5C 76.8461,40.3343 81.1794,40.501 85.5,41C 91.8519,43.047 98.3519,44.2137 105,44.5C 107.95,44.4324 110.617,43.7657 113,42.5C 113.708,43.3805 114.542,44.0472 115.5,44.5C 130.005,45.8261 144.672,45.8261 159.5,44.5C 159.376,43.8933 159.043,43.56 158.5,43.5C 155.667,39.8348 152.334,36.6682 148.5,34C 154.989,35.2562 160.322,38.5895 164.5,44C 183.696,47.3101 202.696,51.4768 221.5,56.5C 222.282,58.3293 221.616,59.8293 219.5,61C 223.465,62.9934 227.465,64.9934 231.5,67C 232.591,69.0639 232.758,71.2305 232,73.5C 230.315,75.0175 228.815,76.6841 227.5,78.5C 225.955,79.4519 224.288,79.7852 222.5,79.5C 220.19,62.3588 210.356,53.3588 193,52.5C 177.77,55.228 169.27,64.228 167.5,79.5C 139.833,79.5 112.167,79.5 84.5,79.5C 81.2529,58.6975 69.2529,50.5308 48.5,55C 38.051,59.3869 32.051,67.2202 30.5,78.5C 24.8135,78.4638 20.8135,75.9638 18.5,71C 20.3513,69.3163 22.018,67.4829 23.5,65.5C 22.8201,64.1401 22.1534,62.8068 21.5,61.5 Z"/></g>
<g><path style="opacity:1" fill="#d3d4d8" d="M 63.5,43.5 C 64.0431,43.56 64.3764,43.8933 64.5,44.5C 52.8523,45.4989 41.1857,45.8322 29.5,45.5C 40.8333,44.8333 52.1667,44.1667 63.5,43.5 Z"/></g>
<g><path style="opacity:1" fill="#d3d4d8" d="M 158.5,43.5 C 159.043,43.56 159.376,43.8933 159.5,44.5C 144.672,45.8261 130.005,45.8261 115.5,44.5C 130.01,44.8293 144.343,44.4959 158.5,43.5 Z"/></g>
<g><path style="opacity:1" fill="#c5c6cb" d="M 33.5,58.5 C 34.0431,58.56 34.3764,58.8933 34.5,59.5C 30.0178,60.1669 25.6845,60.8336 21.5,61.5C 20.9569,61.44 20.6236,61.1067 20.5,60.5C 24.9822,59.8331 29.3155,59.1664 33.5,58.5 Z"/></g>
<g><path style="opacity:1" fill="#8e909a" d="M 52.5,63.5 C 72.6906,63.8985 78.6906,73.2318 70.5,91.5C 107.829,92.6666 145.162,92.8333 182.5,92C 175.039,82.3527 176.039,73.6861 185.5,66C 196.741,60.8581 205.241,63.6914 211,74.5C 212.486,80.9618 211.319,86.7952 207.5,92C 214.158,92.4996 220.825,92.6663 227.5,92.5C 227.5,94.1667 227.5,95.8333 227.5,97.5C 157.5,97.5 87.5,97.5 17.5,97.5C 17.5,95.8333 17.5,94.1667 17.5,92.5C 26.8393,92.6665 36.1726,92.4998 45.5,92C 37.1241,79.8033 39.4574,70.3033 52.5,63.5 Z"/></g>
<g><path style="opacity:1" fill="#fafafb" d="M 53.5,68.5 C 64.8451,67.3467 70.0118,72.3467 69,83.5C 66.4457,90.8147 61.279,93.648 53.5,92C 42.8527,84.0373 42.8527,76.2039 53.5,68.5 Z"/></g>
<g><path style="opacity:1" fill="#fafafa" d="M 190.5,68.5 C 202.87,67.7002 208.036,73.3668 206,85.5C 199.74,93.8207 192.74,94.4874 185,87.5C 180.999,79.4972 182.832,73.1639 190.5,68.5 Z"/></g>
<g><path style="opacity:1" fill="#8f919b" d="M 50.5,80.5 C 53.1569,80.162 55.4902,80.8287 57.5,82.5C 59.5098,80.8287 61.8431,80.162 64.5,80.5C 64.5264,85.1403 62.1931,87.4736 57.5,87.5C 53.448,86.7816 51.1147,84.4483 50.5,80.5 Z"/></g>
<g><path style="opacity:1" fill="#8e8f99" d="M 188.5,80.5 C 190.954,80.3205 193.121,80.9872 195,82.5C 196.921,80.9972 199.088,80.3305 201.5,80.5C 201.572,85.0956 199.238,87.429 194.5,87.5C 190.403,86.9757 188.403,84.6423 188.5,80.5 Z"/></g>
<g><path style="opacity:1" fill="#b8b9bf" d="M 172.5,80.5 C 173.451,81.9187 173.784,83.5853 173.5,85.5C 141.996,85.8315 110.662,85.4982 79.5,84.5C 110.5,84.5 141.5,84.5 172.5,84.5C 172.5,83.1667 172.5,81.8333 172.5,80.5 Z"/></g>
<g><path style="opacity:1" fill="#acaeb5" d="M 216.5,76.5 C 217.473,78.9479 217.806,81.6146 217.5,84.5C 222.5,84.5 227.5,84.5 232.5,84.5C 227.36,85.4881 222.026,85.8214 216.5,85.5C 216.5,82.5 216.5,79.5 216.5,76.5 Z"/></g>
</svg>
