<?xml version="1.0" encoding="UTF-8"?>
<!DOCTYPE svg PUBLIC "-//W3C//DTD SVG 1.1//EN" "http://www.w3.org/Graphics/SVG/1.1/DTD/svg11.dtd">
<svg xmlns="http://www.w3.org/2000/svg" version="1.1" width="161px" height="149px" style="shape-rendering:geometricPrecision; text-rendering:geometricPrecision; image-rendering:optimizeQuality; fill-rule:evenodd; clip-rule:evenodd" xmlns:xlink="http://www.w3.org/1999/xlink">
<g><path style="opacity:1" fill="#8b8d97" d="M 65.5,40.5 C 67.8333,40.5 70.1667,40.5 72.5,40.5C 72.5,39.5 72.5,38.5 72.5,37.5C 73.0256,34.2933 74.6923,31.7933 77.5,30C 84.5667,29.1609 91.5667,29.4942 98.5,31C 101.962,33.2393 103.295,36.406 102.5,40.5C 104.39,40.2965 105.89,40.9632 107,42.5C 107.667,65.5 107.667,88.5 107,111.5C 106.5,112 106,112.5 105.5,113C 86.8333,113.667 68.1667,113.667 49.5,113C 49,112.5 48.5,112 48,111.5C 47.3333,93.5 47.3333,75.5 48,57.5C 53.7019,51.6304 59.5353,45.9638 65.5,40.5 Z"/></g>
<g><path style="opacity:1" fill="#8b8d97" d="M 52.5,34.5 C 57.3247,34.4881 59.4914,36.8214 59,41.5C 55.8333,44.6667 52.6667,47.8333 49.5,51C 44.6667,51.5 42.5,49.3333 43,44.5C 46.3709,41.2975 49.5375,37.9641 52.5,34.5 Z"/></g>
<g><path style="opacity:1" fill="#f5f5f6" d="M 95.5,36.5 C 95.5,37.5 95.5,38.5 95.5,39.5C 89.8333,39.5 84.1667,39.5 78.5,39.5C 78.33,38.1779 78.6634,37.0113 79.5,36C 85.0164,35.1826 90.3497,35.3493 95.5,36.5 Z"/></g>
<g><path style="opacity:1" fill="#bebfc4" d="M 72.5,37.5 C 72.5,38.5 72.5,39.5 72.5,40.5C 70.1667,40.5 67.8333,40.5 65.5,40.5C 67.9741,39.8953 70.3074,38.8953 72.5,37.5 Z"/></g>
<g><path style="opacity:1" fill="#c7c7cc" d="M 95.5,36.5 C 96.4345,37.5676 96.7678,38.901 96.5,40.5C 90.31,40.8229 84.31,40.4896 78.5,39.5C 84.1667,39.5 89.8333,39.5 95.5,39.5C 95.5,38.5 95.5,37.5 95.5,36.5 Z"/></g>
<g><path style="opacity:1" fill="#fcfcfc" d="M 63.5,64.5 C 70.175,64.3337 76.8417,64.5004 83.5,65C 90.4953,67.8279 93.8287,72.9946 93.5,80.5C 94.418,88.8371 91.0847,94.6704 83.5,98C 76.8417,98.4996 70.175,98.6663 63.5,98.5C 63.5,87.1667 63.5,75.8333 63.5,64.5 Z"/></g>
<g><path style="opacity:1" fill="#8c8e98" d="M 72.5,71.5 C 83.2113,71.057 87.0447,76.057 84,86.5C 81.5752,91.0628 77.7419,92.7294 72.5,91.5C 72.5,84.8333 72.5,78.1667 72.5,71.5 Z"/></g>
</svg>
