<?xml version="1.0" encoding="UTF-8"?>
<!DOCTYPE svg PUBLIC "-//W3C//DTD SVG 1.1//EN" "http://www.w3.org/Graphics/SVG/1.1/DTD/svg11.dtd">
<svg xmlns="http://www.w3.org/2000/svg" version="1.1" width="143px" height="156px" style="shape-rendering:geometricPrecision; text-rendering:geometricPrecision; image-rendering:optimizeQuality; fill-rule:evenodd; clip-rule:evenodd" xmlns:xlink="http://www.w3.org/1999/xlink">
<g><path style="opacity:1" fill="#8b8d97" d="M 74.5,67.5 C 73.9569,67.56 73.6236,67.8933 73.5,68.5C 80.4684,69.497 87.4684,69.8303 94.5,69.5C 95.5735,70.2506 95.7401,71.2506 95,72.5C 76.1667,92 57.3333,111.5 38.5,131C 37.365,131.749 36.365,131.583 35.5,130.5C 42.1185,116.932 48.4519,103.265 54.5,89.5C 55.0431,89.44 55.3764,89.1067 55.5,88.5C 49.2015,87.5037 42.8682,87.1703 36.5,87.5C 44.2311,70.8734 52.8978,54.7067 62.5,39C 72.828,38.5002 83.1613,38.3335 93.5,38.5C 93.6495,39.552 93.4828,40.552 93,41.5C 86.5782,50.02 80.4116,58.6867 74.5,67.5 Z"/></g>
<g><path style="opacity:1" fill="#e0e0e3" d="M 74.5,67.5 C 81.1667,68.1667 87.8333,68.8333 94.5,69.5C 87.4684,69.8303 80.4684,69.497 73.5,68.5C 73.6236,67.8933 73.9569,67.56 74.5,67.5 Z"/></g>
<g><path style="opacity:1" fill="#c7c8cd" d="M 36.5,87.5 C 42.8682,87.1703 49.2015,87.5037 55.5,88.5C 55.3764,89.1067 55.0431,89.44 54.5,89.5C 48.5,88.8333 42.5,88.1667 36.5,87.5 Z"/></g>
</svg>
