<?xml version="1.0" encoding="UTF-8"?>
<!DOCTYPE svg PUBLIC "-//W3C//DTD SVG 1.1//EN" "http://www.w3.org/Graphics/SVG/1.1/DTD/svg11.dtd">
<svg xmlns="http://www.w3.org/2000/svg" version="1.1" width="143px" height="139px" style="shape-rendering:geometricPrecision; text-rendering:geometricPrecision; image-rendering:optimizeQuality; fill-rule:evenodd; clip-rule:evenodd" xmlns:xlink="http://www.w3.org/1999/xlink">
<g><path style="opacity:1" fill="#8b8d97" d="M 60.5,36.5 C 62.8333,36.5 65.1667,36.5 67.5,36.5C 67.5,35.5 67.5,34.5 67.5,33.5C 68.0256,30.2933 69.6923,27.7933 72.5,26C 79.5667,25.1609 86.5667,25.4942 93.5,27C 96.962,29.2393 98.2954,32.406 97.5,36.5C 99.3904,36.2965 100.89,36.9632 102,38.5C 102.667,61.5 102.667,84.5 102,107.5C 101.5,108 101,108.5 100.5,109C 81.8333,109.667 63.1667,109.667 44.5,109C 44,108.5 43.5,108 43,107.5C 42.3333,89.5 42.3333,71.5 43,53.5C 48.7019,47.6304 54.5353,41.9638 60.5,36.5 Z"/></g>
<g><path style="opacity:1" fill="#8b8d97" d="M 47.5,30.5 C 52.3247,30.4881 54.4914,32.8214 54,37.5C 50.8333,40.6667 47.6667,43.8333 44.5,47C 39.6667,47.5 37.5,45.3333 38,40.5C 41.3709,37.2975 44.5375,33.9641 47.5,30.5 Z"/></g>
<g><path style="opacity:1" fill="#f5f5f6" d="M 90.5,32.5 C 90.5,33.5 90.5,34.5 90.5,35.5C 84.8333,35.5 79.1667,35.5 73.5,35.5C 73.33,34.1779 73.6634,33.0113 74.5,32C 80.0164,31.1826 85.3497,31.3493 90.5,32.5 Z"/></g>
<g><path style="opacity:1" fill="#c7c7cc" d="M 90.5,32.5 C 91.4345,33.5676 91.7678,34.901 91.5,36.5C 85.31,36.8229 79.31,36.4896 73.5,35.5C 79.1667,35.5 84.8333,35.5 90.5,35.5C 90.5,34.5 90.5,33.5 90.5,32.5 Z"/></g>
<g><path style="opacity:1" fill="#fbfbfb" d="M 58.5,60.5 C 65.175,60.3337 71.8417,60.5004 78.5,61C 85.0702,64.6551 87.2368,70.1551 85,77.5C 80.8778,83.8027 75.0445,86.1361 67.5,84.5C 67.5,87.8333 67.5,91.1667 67.5,94.5C 64.5,94.5 61.5,94.5 58.5,94.5C 58.5,83.1667 58.5,71.8333 58.5,60.5 Z"/></g>
<g><path style="opacity:1" fill="#8b8d97" d="M 67.5,67.5 C 75.9932,66.4707 78.3266,69.6373 74.5,77C 72.1902,77.4966 69.8568,77.6633 67.5,77.5C 67.5,74.1667 67.5,70.8333 67.5,67.5 Z"/></g>
</svg>
