<svg width="51" height="28" viewBox="0 0 51 28" fill="none" xmlns="http://www.w3.org/2000/svg">
<path d="M25 6C16.7163 6 10 9.35693 10 13.5C10 17.6431 16.7163 21 25 21C33.2837 21 40 17.6431 40 13.5C40 9.35693 33.2837 6 25 6ZM25 20.0552C17.6978 20.0552 11.7578 17.1133 11.7578 13.5C11.7578 9.88672 17.6978 6.94482 25 6.94482C32.3022 6.94482 38.2422 9.88672 38.2422 13.5C38.2422 17.1133 32.3022 20.0552 25 20.0552Z" fill="#7B7B7B"/>
<path fill-rule="evenodd" clip-rule="evenodd" d="M23.54 10.4517H23.7866C23.8721 10.4517 23.9209 10.5176 23.9209 10.6006V17.3413C23.9209 17.4316 23.9917 17.5 24.0845 17.5H25.9277C26.0205 17.5 26.0937 17.4316 26.0937 17.3413V10.1587C26.0937 10.0708 26.0205 10 25.9277 10H23.54C23.5156 10 23.5156 10.022 23.5156 10.0391V10.4126C23.5156 10.4297 23.5156 10.4517 23.54 10.4517ZM27.6489 17.5H29.4336C29.519 17.5 29.6118 17.4341 29.646 17.3438L31.167 12.6904C31.167 12.688 31.1865 12.6245 31.2427 12.6245C31.2964 12.6245 31.3159 12.6904 31.3159 12.6904L32.854 17.3438C32.8882 17.4341 32.9785 17.5 33.0664 17.5H34.8511C34.9121 17.5 34.9487 17.4707 34.9683 17.4438C35.0024 17.3999 35.0049 17.3413 34.9951 17.3071L32.5122 10.105C32.4756 10.0122 32.3779 10 32.2974 10H29.4165C29.3945 10 29.375 10.0195 29.375 10.0391V10.4126C29.375 10.4321 29.3945 10.4517 29.4165 10.4517H29.6606C29.751 10.4517 29.812 10.5054 29.812 10.5811C29.812 10.6079 29.8071 10.6348 29.7949 10.6665L27.5049 17.3071C27.4927 17.3535 27.5024 17.4048 27.5342 17.4438C27.561 17.4805 27.6025 17.5 27.6489 17.5ZM15.2368 10.4517C15.3223 10.4517 15.3882 10.5176 15.3882 10.6006V17.3413C15.3882 17.4316 15.459 17.5 15.5518 17.5H17.3437C17.4341 17.5 17.5 17.4292 17.5 17.3413V14.5068C17.5 14.4434 17.5342 14.4092 17.5854 14.4092C17.6465 14.4092 17.6758 14.4482 17.6978 14.48C17.7002 14.4849 17.7026 14.4873 17.7051 14.4897L19.8145 17.3267C19.8804 17.4268 20.0024 17.5 20.0977 17.5H22.1973C22.2461 17.5 22.3022 17.4658 22.3267 17.417C22.3535 17.3657 22.3486 17.3096 22.3071 17.2534C22.3022 17.2437 19.6753 13.6401 19.6484 13.6035C19.6387 13.5913 19.6362 13.584 19.6313 13.5767C19.6265 13.5669 19.6191 13.5547 19.6191 13.5449C19.6167 13.5376 19.6143 13.5303 19.6143 13.5205C19.6143 13.4888 19.6289 13.4595 19.646 13.4253L19.6484 13.4204L21.853 10.2271C21.8823 10.1831 21.8823 10.1245 21.853 10.0757C21.8262 10.0293 21.7773 10 21.7261 10H19.7314C19.6387 10 19.5142 10.0732 19.4458 10.1709L17.7051 12.5488C17.6514 12.627 17.5977 12.6318 17.5879 12.6318H17.5854C17.5366 12.6318 17.5 12.6001 17.5 12.5537V10.1587C17.5 10.0708 17.4268 10 17.3389 10H15.0415C15.0195 10 15 10.0195 15 10.0391V10.4126C15 10.4346 15.0195 10.4517 15.0415 10.4517H15.2368Z" fill="#7B7B7B"/>
</svg>
