<svg width="51" height="28" viewBox="0 0 51 28" fill="none" xmlns="http://www.w3.org/2000/svg">
<path d="M44.6808 9.81602L46 8.4516H32.7942C31.1519 5.77788 28.2846 4 25.0135 4C21.7423 4 18.875 5.77788 17.2327 8.4516H4L5.31923 9.81602H16.5327C16.3173 10.326 16.1558 10.8635 16.0346 11.4147H6.85385L8.17308 12.7792H15.8327C15.8058 13.041 15.7923 13.3029 15.7923 13.5785C15.7923 13.8542 15.8058 14.116 15.8327 14.3779H9.70769L11.0269 15.7423H16.0346C16.1558 16.3074 16.3308 16.8587 16.5596 17.3824C16.5596 17.3686 16.5462 17.3548 16.5462 17.341H12.5615L13.8808 18.7054H17.2327C18.875 21.3792 21.7423 23.157 25.0135 23.157C28.2846 23.157 31.1519 21.3792 32.7942 18.7054H36.1192L37.4385 17.341H33.4942C33.4942 17.3548 33.4808 17.3686 33.4808 17.3824C33.6962 16.8587 33.8712 16.3074 34.0058 15.7423H38.9865L40.3058 14.3779H34.2212C34.2481 14.116 34.2615 13.8542 34.2615 13.5785C34.2615 13.3029 34.2481 13.041 34.2212 12.7792H41.8269L43.1462 11.4147H33.9923C33.8712 10.8635 33.6962 10.326 33.4942 9.81602H44.6808ZM32.9962 8.79615C32.9962 8.78237 32.9827 8.78237 32.9827 8.76859C32.9827 8.78237 32.9962 8.78237 32.9962 8.79615ZM33.1846 9.15449C33.1846 9.1407 33.1712 9.12692 33.1712 9.11314C33.1712 9.12692 33.1846 9.1407 33.1846 9.15449ZM16.8692 9.11314C16.8558 9.12692 16.8558 9.1407 16.8558 9.15449C16.8558 9.1407 16.8558 9.12692 16.8692 9.11314ZM17.0442 8.76859C17.0442 8.78237 17.0308 8.78237 17.0308 8.79615C17.0308 8.78237 17.0442 8.78237 17.0442 8.76859ZM17.0308 18.3609C17.0308 18.3747 17.0442 18.3747 17.0442 18.3885C17.0442 18.3885 17.0308 18.3747 17.0308 18.3609ZM16.8423 18.0026C16.8558 18.0163 16.8558 18.0301 16.8692 18.0439C16.8558 18.0301 16.8423 18.0163 16.8423 18.0026ZM25.0135 21.7926C20.6519 21.7926 17.1115 18.1128 17.1115 13.5785C17.1115 9.04423 20.6519 5.36442 25.0135 5.36442C29.375 5.36442 32.9154 9.04423 32.9154 13.5785C32.9154 18.1128 29.375 21.7926 25.0135 21.7926ZM33.1712 18.0577C33.1846 18.0439 33.1846 18.0301 33.1981 18.0163C33.1846 18.0163 33.1712 18.0301 33.1712 18.0577ZM32.9827 18.3885C32.9827 18.3747 32.9962 18.3747 32.9962 18.3609C32.9962 18.3747 32.9827 18.3885 32.9827 18.3885Z" fill="#7B7B7B"/>
<path d="M19.4674 15.7423H18.6462V11.3734H19.8712L20.9347 14.8603L21.9982 11.3734H23.2232V15.7285H22.3751V12.5035L21.3924 15.7285H20.477L19.4674 12.476V15.7423ZM25.0405 15.7423H24.1655V11.3734H25.0405V15.7423ZM26.8309 15.7423H25.9962V11.3734H27.0193L28.6885 14.5295V11.3734H29.5232V15.7285H28.5001L26.8309 12.5862V15.7423ZM31.3405 15.7423H30.4655V11.3734H31.3405V15.7423Z" fill="#7B7B7B"/>
</svg>
