<svg width="51" height="28" viewBox="0 0 51 28" fill="none" xmlns="http://www.w3.org/2000/svg">
<path d="M34.7849 8.74918C33.0019 5.33513 29.4257 3 25.3025 3C21.1793 3 17.6032 5.33513 15.8202 8.74918H34.7849ZM15.8101 18.6216C17.5931 22.0458 21.1743 24.386 25.3025 24.386C29.4308 24.386 33.012 22.0458 34.795 18.6216H15.8101ZM31.5937 12.5229C31.5633 12.4418 31.538 12.381 31.5329 12.381C31.5279 12.381 31.5025 12.4469 31.4722 12.5229L30.9757 13.85C30.9454 13.931 30.9909 13.9918 31.0771 13.9918H31.9888C32.0749 13.9918 32.1205 13.926 32.0901 13.85L31.5937 12.5229Z" fill="#7B7B7B"/>
<path d="M39.835 9.67102H10.9219C10.4154 9.67102 10 10.0864 10 10.5929V16.8942C10 17.4008 10.4154 17.8161 10.9219 17.8161H39.835C40.3415 17.8161 40.7569 17.4008 40.7569 16.8942V10.5929C40.7569 10.0864 40.3415 9.67102 39.835 9.67102ZM16.6913 15.8609C16.6913 15.947 16.6204 16.0129 16.5394 16.0129H14.8374C14.7513 16.0129 14.6551 15.9521 14.6196 15.871L13.1355 12.6748C13.1 12.5988 13.0696 12.538 13.0696 12.5431C13.0696 12.5481 13.0645 12.6191 13.0645 12.7052L13.0443 15.8609C13.0443 15.947 12.9734 16.0129 12.8873 16.0129H12.0717C11.9856 16.0129 11.9198 15.9419 11.9198 15.8609V11.5401C11.9198 11.454 11.9907 11.3882 12.0717 11.3882H13.8953C13.9814 11.3882 14.0776 11.454 14.108 11.53L15.4402 14.7161C15.4706 14.7921 15.501 14.787 15.501 14.706V11.5452C15.501 11.4591 15.5719 11.3932 15.6529 11.3932H16.5343C16.6204 11.3932 16.6863 11.4642 16.6863 11.5452V15.8609H16.6913ZM18.915 15.8609C18.915 15.947 18.8441 16.0129 18.7631 16.0129H17.8817C17.7956 16.0129 17.7297 15.9419 17.7297 15.8609V11.5401C17.7297 11.454 17.8007 11.3882 17.8817 11.3882H18.7631C18.8492 11.3882 18.915 11.4591 18.915 11.5401V15.8609ZM24.107 14.5186C24.107 15.1365 23.6511 15.8356 23.0636 15.9521H19.9484V14.9339L22.4658 14.8985C22.7799 14.8934 22.8002 14.7111 22.7951 14.5844C22.7951 14.5844 22.8559 14.1843 22.4253 14.1843H21.0273C20.1864 14.1843 19.7356 13.6575 19.7356 12.7558C19.7356 11.4895 20.46 11.3426 21.625 11.3426C22.79 11.3426 23.6765 11.3274 23.6765 11.3274L23.6613 12.3759C22.8204 12.3759 22.091 12.381 21.625 12.381C20.9817 12.381 20.9868 12.4013 20.9868 12.7812C20.9868 13.1205 21.0374 13.1205 21.5642 13.1205L23.0686 13.1357C24.1425 13.1408 24.107 14.5186 24.107 14.5186ZM28.8938 14.5186C28.8938 15.1365 28.4379 15.8356 27.8503 15.9521H24.7402V14.9339L27.2577 14.8985C27.5717 14.8934 27.592 14.7111 27.5869 14.5844C27.5869 14.5844 27.6477 14.1843 27.2172 14.1843H25.8191C24.9783 14.1843 24.5275 13.6575 24.5275 12.7558C24.5275 11.4895 25.2518 11.3426 26.4168 11.3426C27.5819 11.3426 28.4683 11.3274 28.4683 11.3274L28.4531 12.3759C27.6123 12.3759 26.8828 12.381 26.4168 12.381C25.7735 12.381 25.7786 12.4013 25.7786 12.7812C25.7786 13.1205 25.8292 13.1205 26.356 13.1205L27.8605 13.1357C28.9292 13.1408 28.8938 14.5186 28.8938 14.5186ZM33.9743 15.9065H33.0727C32.9866 15.9065 32.8904 15.8457 32.8498 15.7697L32.5966 15.248C32.5611 15.172 32.4598 15.1112 32.3737 15.1112H30.7021C30.616 15.1112 30.5147 15.172 30.4792 15.248L30.2108 15.7697C30.1703 15.8457 30.074 15.9065 29.9879 15.9065H29.0609C28.9748 15.9065 28.9292 15.8406 28.9596 15.7647L30.5603 11.4236C30.5907 11.3426 30.6819 11.2818 30.768 11.2818H32.2673C32.3534 11.2818 32.4446 11.3477 32.475 11.4236L34.0807 15.7647C34.106 15.8406 34.0605 15.9065 33.9743 15.9065ZM39.3639 15.8609C39.3639 15.947 39.293 16.0129 39.2119 16.0129H37.51C37.4239 16.0129 37.3276 15.9521 37.2922 15.871L35.808 12.6748C35.7725 12.5988 35.7422 12.538 35.7422 12.5431C35.7422 12.5481 35.7371 12.6191 35.7371 12.7052L35.7168 15.8609C35.7168 15.947 35.6459 16.0129 35.5598 16.0129H34.7392C34.6531 16.0129 34.5873 15.9419 34.5873 15.8609V11.5401C34.5873 11.454 34.6582 11.3882 34.7392 11.3882H36.5627C36.6489 11.3882 36.7451 11.454 36.7755 11.53L38.1077 14.7161C38.1381 14.7921 38.1685 14.787 38.1685 14.706V11.5452C38.1685 11.4591 38.2394 11.3932 38.3204 11.3932H39.2069C39.293 11.3932 39.3588 11.4642 39.3588 11.5452V15.8609H39.3639Z" fill="#7B7B7B"/>
</svg>
