<svg width="52" height="28" viewBox="0 0 52 28" fill="none" xmlns="http://www.w3.org/2000/svg">
<path d="M51.1568 10.0335V11.1999H48.7364V16.3298H47.1045V11.1999H44.6852V10.0335H51.1568Z" fill="#7B7B7B"/>
<path d="M45.3819 15.1628V16.3296H40.1963V10.0335H41.827V15.1628H45.3819" fill="#7B7B7B"/>
<path d="M13.9683 15.1628V16.3296H8.51985V10.0335H13.8655V11.1997H10.1518V12.5836H13.5456V13.7127H10.1518V15.1628H13.9683" fill="#7B7B7B"/>
<path d="M4.77167 12.9703C4.64639 13.0935 4.49708 13.1529 4.26591 13.1529H2.04003V11.2338H3.79794C4.32134 11.2338 4.60097 11.2931 4.78935 11.4468C4.97441 11.5948 5.06331 11.821 5.06331 12.1541C5.06331 12.4994 4.97193 12.7762 4.77167 12.9703ZM5.59674 13.9924C6.29529 13.612 6.72671 12.8635 6.72671 12.0776C6.72671 11.4228 6.53645 10.9146 6.13781 10.5808C5.67419 10.1951 5.03879 10.0346 3.96552 10.0346H0.223554L0.15686 10.4146C0.15686 10.4146 0.223553 10.5276 0.30101 10.6636C0.416936 10.8646 0.407418 10.9233 0.407418 11.0574V16.3308H2.04003V14.3149H4.06753L5.15595 16.3308H6.95288L5.59674 13.9924" fill="#7B7B7B"/>
<path d="M20.8006 10.0323V14.2088C20.4203 13.7279 20.0204 13.2638 19.345 12.5191C18.796 11.9136 17.6504 10.6714 17.0613 10.0336H15.4858L15.4207 10.4128C15.4207 10.4128 15.4878 10.526 15.5646 10.6625C15.6522 10.8118 15.6698 10.8831 15.6726 10.9641L15.6713 16.3298L17.1372 16.3246V12.1537C17.4304 12.5457 17.9518 13.1469 18.2989 13.5255C18.9911 14.2766 20.0368 15.4478 20.8505 16.3298H22.2593V10.0336L20.8005 10.0323" fill="#7B7B7B"/>
<path d="M36.7781 10.0335V13.884C36.7781 14.3133 36.6929 14.5686 36.4838 14.7646C36.2199 15.011 35.7836 15.1292 35.1538 15.1292C34.5144 15.1292 34.0665 15.011 33.8038 14.7646C33.5955 14.5686 33.5099 14.3126 33.5099 13.884V10.0335H31.6932L31.6273 10.4136C31.6273 10.4136 31.6952 10.5266 31.7708 10.6625C31.8532 10.8067 31.8728 10.8774 31.8764 10.9558L31.878 13.9428C31.878 15.5889 32.9896 16.4265 35.1318 16.4265H35.177C37.3215 16.4265 38.374 15.6122 38.374 13.9428V10.0335H36.7781" fill="#7B7B7B"/>
<path d="M26.0202 14.0527C26.4493 12.9801 26.8795 11.9654 27.2258 11.1783C27.5729 11.9654 28.0044 12.9801 28.4326 14.0527H26.0202ZM28.2463 10.0335H26.2065C25.5887 11.3148 24.5123 13.6804 23.5058 16.3298H25.1437C25.274 15.9719 25.4124 15.606 25.5515 15.2399H28.9005C29.0417 15.606 29.1796 15.9719 29.3092 16.3298H30.9475C29.9398 13.6804 28.8641 11.3148 28.2463 10.0335" fill="#7B7B7B"/>
</svg>
