<svg width="24" height="24" viewBox="0 0 24 24" fill="none" xmlns="http://www.w3.org/2000/svg">
<path d="M12 20.0001C12 19.4478 12.4478 19.0001 13 19.0001H19V5.00007H13C12.4478 5.00007 12 4.55235 12 4.00007C12 3.44778 12.4478 3.00007 13 3.00007H19C20.1046 3.00007 21 3.8955 21 5.00007V19.0001C21 20.1046 20.1046 21.0001 19 21.0001H13C12.4478 21.0001 12 20.5524 12 20.0001Z" fill="black"/>
<path d="M9.00002 8.41426L11.5858 11H3C2.44771 11 2 11.4477 2 12C2 12.5523 2.44772 13 3 13H11.5858L8.99998 15.5858C8.60945 15.9764 8.60945 16.6095 8.99998 17.0001C9.3905 17.3906 10.0237 17.3906 10.4142 17.0001L14.7071 12.7071C14.8946 12.5196 15 12.2652 15 12C15 11.7348 14.8946 11.4805 14.7071 11.2929L10.4142 7.00005C10.0237 6.60953 9.39054 6.60953 9.00002 7.00005C8.60949 7.39057 8.60949 8.02374 9.00002 8.41426Z" fill="black"/>
</svg>
