<svg width="51" height="28" viewBox="0 0 51 28" fill="none" xmlns="http://www.w3.org/2000/svg">
<path d="M9.86106 11.1288L10.5106 11.8699C10.546 11.9123 10.582 11.9271 10.6387 11.9271H12.0015C12.059 11.9271 12.0945 11.9123 12.1298 11.8699L12.7794 11.1288C12.8361 11.0639 12.8149 11 12.7221 11H11.8025C11.7445 11 11.7085 11.0212 11.673 11.0639L11.3953 11.4639H11.2446L10.9669 11.0639C10.9314 11.0212 10.8957 11 10.8315 11H9.91847C9.82487 11 9.805 11.0639 9.86106 11.1288ZM21.8849 14.852V14.9235C21.8849 17.4126 22.2927 17.5633 25.2812 17.5633C28.2705 17.5633 28.6772 17.4126 28.6772 14.9158V14.852C28.6772 12.3628 28.2705 12.2126 25.2812 12.2126C22.2927 12.2126 21.8849 12.3628 21.8849 14.852ZM21.5822 17.3275L18.7425 14.5523L21.4103 12.4479C21.4893 12.391 21.4599 12.3195 21.3602 12.3195H19.6195C19.5699 12.3195 19.5339 12.3338 19.4913 12.3693L16.7663 14.5459V12.4265C16.7663 12.3557 16.7306 12.3195 16.6593 12.3195H15.3325C15.2609 12.3195 15.2249 12.3557 15.2249 12.4265V17.3487C15.2249 17.4203 15.2609 17.4558 15.3325 17.4558H16.6594C16.7308 17.4558 16.7663 17.4203 16.7663 17.3487V16.1077L17.5723 15.4725L19.5268 17.399C19.5699 17.4415 19.6054 17.4558 19.662 17.4558H21.5316C21.6243 17.4558 21.6532 17.3919 21.5822 17.3275ZM32.6021 12.3195H29.7558C29.6848 12.3195 29.6481 12.3557 29.6481 12.4265V17.3487C29.6481 17.4203 29.6848 17.4558 29.7558 17.4558H32.6021C35.6488 17.4558 36.048 17.3056 36.048 14.9087V14.8662C36.048 12.4691 35.6488 12.3195 32.6021 12.3195ZM43.6281 17.3275L41.1669 12.3981C41.1453 12.3414 41.1024 12.3195 41.0456 12.3195H38.863C38.8049 12.3195 38.7625 12.3414 38.7412 12.3981L36.2799 17.3275C36.2437 17.4062 36.2732 17.4558 36.3577 17.4558H37.7779C37.8345 17.4558 37.878 17.4345 37.8989 17.3771L38.2704 16.6496H41.6378L42.0083 17.3771C42.0303 17.4345 42.0726 17.4558 42.1302 17.4558H43.5495C43.6352 17.4558 43.6638 17.4062 43.6281 17.3275ZM27.0218 14.852V14.9235C27.0218 16.3647 26.9649 16.386 25.2812 16.386C23.5975 16.386 23.5401 16.3647 23.5401 14.9235V14.852C23.5401 13.411 23.5975 13.3898 25.2812 13.3898C26.9649 13.3898 27.0218 13.411 27.0218 14.852ZM34.4288 14.852V14.9235C34.4288 16.2431 34.3211 16.2861 32.6097 16.2861H31.1971V13.4892H32.6097C34.3211 13.4892 34.4288 13.5323 34.4288 14.852ZM41.0952 15.5728H38.8124L39.8613 13.4961H40.0466L41.0952 15.5728ZM8.17089 17.4634C8.9273 17.4982 10.1607 17.5337 10.8733 17.5337C13.9844 17.5337 14.3556 17.5273 14.3556 15.8366C14.3556 14.5025 13.9637 14.3957 12.3155 14.3461L10.4036 14.2887C9.52659 14.2598 9.51181 14.1676 9.51181 13.7752C9.51181 13.3686 9.61883 13.3686 11.7233 13.3686C12.1221 13.3686 13.3922 13.3898 14.0635 13.4041C14.1339 13.4041 14.1706 13.3686 14.1706 13.297V12.4265C14.1706 12.3557 14.1339 12.3195 14.07 12.313C13.4063 12.2765 12.3226 12.241 11.5448 12.241C8.49176 12.241 8 12.2984 8 13.8744C8 15.2231 8.29896 15.4016 10.2536 15.466L12.008 15.5227C12.829 15.5511 12.8437 15.6508 12.8437 15.9576C12.8437 16.379 12.8077 16.4002 10.8668 16.4002C9.96094 16.4002 9.0265 16.3647 8.17785 16.3359C8.10651 16.3287 8.071 16.3647 8.071 16.4357V17.3487C8.071 17.4203 8.10651 17.4558 8.17089 17.4634Z" fill="#7B7B7B"/>
</svg>
