<svg width="25" height="25" viewBox="0 0 25 25" fill="none" xmlns="http://www.w3.org/2000/svg">
<path d="M12.3984 24.6875L15.8672 5.17969C19.1719 5.17969 20.2188 5.54688 20.3672 7.02344C20.3672 7.02344 22.5859 6.19531 23.7031 4.51563C19.3359 2.49219 14.9531 2.39844 14.9531 2.39844L12.3906 5.51563H12.3984L9.83594 2.39844C9.83594 2.39844 5.45313 2.49219 1.08594 4.51563C2.20313 6.19531 4.42188 7.02344 4.42188 7.02344C4.57813 5.54688 5.61719 5.17969 8.89844 5.17969L12.3984 24.6875Z" fill="#7B7B7B"/>
<path d="M12.3984 1.5C15.9297 1.46875 19.9609 2.04687 24.1016 3.85156C24.6562 2.85937 24.7969 2.41406 24.7969 2.41406C20.8516 0.84375 16.6484 0.0234375 12.3984 0C8.14844 0.0234375 3.94531 0.84375 0 2.41406C0.203125 2.90625 0.429687 3.38281 0.695312 3.85156C4.82812 2.04687 8.86719 1.47656 12.3984 1.5Z" fill="#7B7B7B"/>
</svg>
