<svg width="51" height="36" viewBox="0 0 51 36" fill="none" xmlns="http://www.w3.org/2000/svg">
<path d="M25.5 7.30555C16.4101 7.30555 9.0421 12.093 9.0421 18C9.0421 23.907 16.4101 28.6944 25.5 28.6944C34.5899 28.6944 41.9579 23.907 41.9579 18C41.9579 12.093 34.5899 7.30555 25.5 7.30555ZM25.5 26.5556C17.9922 26.5556 11.9043 22.7262 11.9043 18C11.9043 13.2738 17.9922 9.44444 25.5 9.44444C33.0078 9.44444 39.0957 13.2738 39.0957 18C39.0957 22.7262 33.0078 26.5556 25.5 26.5556Z" fill="#7B7B7B"/>
<path d="M25.5 9.44444C23.1297 9.44444 21.2066 13.2738 21.2066 18C21.2066 22.7262 23.1297 26.5555 25.5 26.5555C27.8703 26.5555 29.7934 22.7262 29.7934 18C29.7934 13.2738 27.8703 9.44444 25.5 9.44444ZM25.5 23.7037C24.3149 23.7037 23.3533 21.1498 23.3533 18C23.3533 14.8501 24.3149 12.2963 25.5 12.2963C26.6852 12.2963 27.6467 14.8501 27.6467 18C27.6467 21.1498 26.6852 23.7037 25.5 23.7037Z" fill="#7B7B7B"/>
<path d="M23.3533 18.0279C23.3533 18.0195 23.3533 18.0084 23.3533 18C23.3533 14.8502 24.3149 12.2963 25.5 12.2963C26.6852 12.2963 27.6467 14.8502 27.6467 18C27.6467 18.0641 27.6439 18.1253 27.6439 18.1894C27.6439 18.1894 27.6467 18.1894 27.6495 18.1894C27.6663 14.0509 27.1995 10.8704 25.5 10.8704C23.7111 10.8704 23.3449 14.1483 23.3477 18.0279C23.3505 18.0279 23.3505 18.0279 23.3533 18.0279Z" fill="#7B7B7B"/>
<path d="M25.5 8.0185C19.1773 8.0185 14.051 10.2521 14.051 13.0092C14.051 15.7664 19.1773 18 25.5 18C31.8227 18 36.949 15.7664 36.949 13.0092C36.949 10.2521 31.8227 8.0185 25.5 8.0185ZM25.5 15.8611C20.7566 15.8611 16.9133 14.2458 16.9133 12.4745C16.9133 10.7033 20.7566 9.44443 25.5 9.44443C30.2434 9.44443 34.0867 10.7033 34.0867 12.4745C34.0867 14.2458 30.2434 15.8611 25.5 15.8611Z" fill="#7B7B7B"/>
<path d="M11.9043 18C11.9043 16.2872 12.7121 14.6942 14.0902 13.3574C14.0734 13.2404 14.051 13.1262 14.051 13.0093C14.051 12.572 14.1936 12.1459 14.4368 11.7421C11.9099 13.1903 10.4732 15.2957 10.4732 18C10.4732 23.1216 17.2375 25.6616 22.593 26.355C16.4828 25.5167 11.9043 22.0967 11.9043 18ZM36.5633 11.7421C36.8064 12.1459 36.949 12.572 36.949 13.0093C36.949 13.1262 36.9266 13.2404 36.9099 13.3574C38.2879 14.6942 39.0957 16.2872 39.0957 18C39.0957 22.0967 34.5172 25.5167 28.407 26.355C33.7625 25.6616 40.5268 23.1216 40.5268 18C40.5268 15.2957 39.0901 13.1903 36.5633 11.7421Z" fill="#7B7B7B"/>
</svg>
