<svg width="51" height="28" viewBox="0 0 51 28" fill="none" xmlns="http://www.w3.org/2000/svg">
<path d="M25.5 3C19.1585 3 14 8.159 14 14.5C14 20.841 19.1585 26 25.5 26C31.8415 26 37 20.841 37 14.5C37 8.159 31.8415 3 25.5 3ZM28.4365 5.47L25.5 12L22.5635 5.47C23.489 5.168 24.475 5 25.5 5C26.525 5 27.511 5.168 28.4365 5.47ZM20.6205 6.364L24.199 14H26.8005L30.379 6.364C31.444 7.0055 32.3715 7.847 33.112 8.8405L28.6765 18.5L26.83 15H24.17L22.3235 18.5L17.8875 8.8405C18.628 7.8475 19.5555 7.0055 20.6205 6.364ZM16 14.5C16 13.326 16.224 12.2065 16.615 11.1675L22.072 23.35C22.0755 23.3515 22.079 23.3525 22.0825 23.354C18.53 21.9775 16 18.5325 16 14.5ZM22.0925 23.3575L25.5 17L28.9075 23.3575C27.848 23.7665 26.702 24 25.5 24C24.298 24 23.152 23.7665 22.0925 23.3575ZM28.917 23.354C28.9205 23.3525 28.924 23.3515 28.9275 23.35L34.385 11.1675C34.776 12.2065 35 13.326 35 14.5C35 18.5325 32.47 21.9775 28.917 23.354Z" fill="#7B7B7B"/>
</svg>
